<?xml version="1.0" standalone="no"?>
<!DOCTYPE svg PUBLIC "-//W3C//DTD SVG 20010904//EN"
 "http://www.w3.org/TR/2001/REC-SVG-20010904/DTD/svg10.dtd">
<svg version="1.0" xmlns="http://www.w3.org/2000/svg"
 width="700.000000pt" height="700.000000pt" viewBox="0 0 700.000000 700.000000"
 preserveAspectRatio="xMidYMid meet">
<metadata>
Created by potrace 1.14, written by Peter Selinger 2001-2017
</metadata>
<g transform="translate(0.000000,700.000000) scale(0.100000,-0.100000)"
fill="#000000" stroke="none">
<path d="M869 5791 c-49 -48 -49 -67 -10 -239 66 -289 90 -487 98 -812 l5
-235 -58 -80 c-122 -168 -151 -265 -104 -343 l20 -33 -44 -77 c-119 -210 -290
-578 -375 -806 -268 -717 -234 -1282 97 -1588 209 -193 535 -316 1002 -380
145 -20 209 -22 520 -22 277 -1 388 3 505 17 445 53 799 180 1053 379 35 27
66 48 68 45 3 -2 9 -41 14 -87 5 -46 11 -84 13 -86 1 -2 67 37 145 86 316 198
470 344 648 615 l72 110 83 29 c862 296 1344 569 1658 939 167 198 262 380
307 590 17 82 85 548 108 742 27 228 90 965 83 972 -2 1 -54 -36 -117 -83
-308 -229 -658 -463 -775 -519 -30 -14 -136 -47 -237 -75 -233 -64 -342 -115
-430 -203 -105 -104 -132 -160 -238 -495 -38 -119 -63 -179 -93 -224 -38 -57
-351 -389 -366 -387 -3 0 -29 48 -58 107 -61 126 -160 291 -243 407 l-60 83
-1 739 c0 544 -3 747 -12 773 -24 68 -118 101 -187 65 -37 -19 -44 -33 -85
-161 -81 -247 -236 -486 -409 -628 l-47 -38 -77 60 c-218 168 -413 266 -647
326 -365 92 -608 73 -895 -71 l-105 -53 -330 329 c-181 181 -340 334 -352 340
-12 6 -41 11 -64 11 -35 0 -47 -6 -80 -39z m581 -811 l-25 -19 -83 82 -84 82
6 -95 c4 -52 9 -116 12 -142 5 -42 3 -50 -23 -75 l-28 -28 -7 90 c-9 114 -28
316 -35 375 l-5 45 148 -148 149 -148 -25 -19z m2450 -639 l0 -660 24 -100
c40 -164 50 -274 43 -495 -22 -733 -269 -1193 -772 -1441 -209 -104 -403 -156
-706 -192 -182 -22 -719 -25 -879 -5 -326 40 -548 96 -725 184 -257 128 -364
280 -396 563 -30 267 55 654 237 1080 77 180 244 516 322 646 l51 86 188 6
c167 5 414 34 526 62 20 5 27 2 32 -14 9 -29 61 -54 94 -46 38 10 71 44 71 76
0 24 5 28 53 39 237 57 650 190 1102 357 284 104 315 118 384 170 98 74 223
195 286 277 28 36 53 65 58 65 4 1 7 -296 7 -658z m1506 96 c-6 -24 -5 -24
101 -30 58 -4 137 -7 174 -7 l67 0 7 -66 c12 -109 3 -160 -36 -201 -19 -19
-56 -50 -82 -68 -27 -18 -45 -35 -40 -38 41 -23 286 -41 345 -25 32 10 78 55
123 120 l33 50 42 -72 c23 -39 51 -75 63 -79 12 -5 49 -21 82 -35 l59 -27 -53
-30 c-73 -42 -138 -109 -146 -151 -6 -34 19 -129 50 -187 12 -23 9 -30 -25
-81 -103 -152 -294 -333 -488 -464 -180 -120 -505 -275 -862 -410 -80 -30
-146 -53 -148 -51 -2 2 1 29 8 59 14 71 15 279 0 371 -6 39 -22 112 -35 163
l-25 94 102 96 c344 322 442 463 528 761 45 156 77 235 117 294 29 42 48 49
39 14z"/>
<path d="M3763 4763 c-18 -28 -63 -79 -101 -114 -107 -101 -226 -165 -517
-276 -66 -26 -124 -49 -128 -53 -6 -5 395 -374 598 -550 77 -66 119 -48 155
67 31 101 40 285 32 647 l-7 329 -32 -50z"/>
<path d="M1159 3701 c-20 -20 -29 -39 -29 -61 0 -45 47 -90 93 -90 81 0 118
102 56 154 -41 35 -83 34 -120 -3z"/>
<path d="M2812 3625 c-38 -17 -56 -56 -47 -102 12 -67 107 -91 151 -39 43 49
28 117 -31 142 -40 16 -32 17 -73 -1z"/>
<path d="M1863 3516 c-22 -19 -28 -32 -28 -66 0 -34 6 -47 28 -66 62 -53 147
-15 147 66 0 81 -85 119 -147 66z"/>
<path d="M1021 3004 c-25 -21 -31 -33 -31 -65 0 -86 100 -123 154 -58 40 47
30 106 -23 134 -42 21 -65 19 -100 -11z"/>
<path d="M1613 2752 c-27 -4 -73 -56 -73 -83 0 -37 29 -77 63 -88 63 -21 117
18 117 84 0 60 -45 97 -107 87z"/>
<path d="M2484 2744 c-31 -15 -54 -50 -54 -80 0 -32 31 -73 63 -83 63 -21 117
18 117 84 0 69 -64 109 -126 79z"/>
<path d="M3330 2563 c-62 -23 -82 -109 -36 -152 37 -35 93 -31 128 8 15 17 28
40 28 52 0 36 -28 76 -61 88 -35 12 -37 12 -59 4z"/>
<path d="M1727 2189 c-29 -17 -46 -67 -36 -103 19 -66 93 -87 146 -42 39 34
39 98 0 132 -30 26 -79 31 -110 13z"/>
<path d="M2693 1896 c-22 -19 -28 -32 -28 -66 0 -34 6 -47 28 -66 59 -51 147
-15 147 60 0 48 -8 65 -41 81 -40 21 -74 18 -106 -9z"/>
<path d="M5187 3840 c-34 -27 -43 -70 -23 -109 55 -105 207 -33 161 77 -23 54
-90 70 -138 32z"/>
<path d="M4783 3385 c-50 -35 -46 -123 8 -151 97 -50 184 72 103 144 -29 26
-79 29 -111 7z"/>
<path d="M5364 3300 c-56 -23 -71 -99 -29 -144 53 -58 155 -20 155 58 0 64
-69 111 -126 86z"/>
</g>
</svg>
