<?xml version="1.0" encoding="UTF-8"?>
<svg width="126mm" height="178mm" version="1.1" viewBox="0 0 126 178" xmlns="http://www.w3.org/2000/svg"><defs><filter id="b" x="-.049939" y="-.049939" width="1.0999" height="1.0999" color-interpolation-filters="sRGB"><feGaussianBlur stdDeviation="0.23266306"/></filter><filter id="a" x="-.18179" y="-.18179" width="1.3636" height="1.3636" color-interpolation-filters="sRGB"><feGaussianBlur stdDeviation="0.54876587"/></filter><clipPath id="c"><path d="m175.04-145.59 96.593-25.881 18.441 68.825-91.457 45.048z" fill="#64a9fe" stroke-linecap="round" stroke-linejoin="round" stroke-width=".33239" style="paint-order:markers fill stroke"/></clipPath></defs>
<g id="s">
<path d="m51.594 69.585-2.1888-0.28538 1.5291 1.5919-2.0403-0.84216 1.065 1.9334-1.7529-1.3415 0.52833 2.1431-1.3459-1.7495-0.04436 2.2069-0.84724-2.0382-0.61403 2.1202-0.29084-2.1881-1.1418 1.889 0.28538-2.1888-1.5919 1.5291 0.84216-2.0403-1.9334 1.065 1.3415-1.7529-2.1431 0.52833 1.7495-1.3459-2.2069-0.04436 2.0382-0.84724-2.1202-0.61403 2.1881-0.29084-1.889-1.1418 2.1888 0.28538-1.5291-1.5919 2.0403 0.84216-1.065-1.9334 1.7529 1.3415-0.52833-2.1431 1.3459 1.7495 0.04436-2.2069 0.84724 2.0382 0.61403-2.1202 0.29084 2.1881 1.1418-1.889-0.28538 2.1888 1.5919-1.5291-0.84216 2.0403 1.9334-1.065-1.3415 1.7529 2.1431-0.52833-1.7495 1.3459 2.2069 0.04436-2.0382 0.84724 2.1202 0.61403-2.1881 0.29084z" fill="#55f" filter="url(#b)" style="paint-order:markers fill stroke"/><circle transform="matrix(.87362 0 0 .87362 5.8518 8.5604)" cx="46.302" cy="67.733" r="3.6224" fill="#fff" filter="url(#a)" style="mix-blend-mode:normal;paint-order:markers fill stroke"/></g>
<path id="st" d="m0 0v-1.1218h-0.43391v-0.11289h0.99836v0.11289h-0.43392v1.1218z"/>
<path id="sh" d="m0 0h0.12876v1.2347h-0.12876zm-0.77259 1.2347h-0.13052v-1.2347h0.13052zm0.78494-0.56974h-0.79905v-0.11465h0.79905z"/>
<path id="si" d="m0 0v-1.2347h0.13053v1.2347z"/>
<path id="ss" d="m0 0q-0.13758 0-0.26458-0.0441-0.12524-0.0459-0.19403-0.11642l0.0512-0.10054q0.0653 0.0635 0.17463 0.1076 0.11112 0.0423 0.23283 0.0423 0.11642 0 0.18874-0.0282 0.0741-0.03 0.10759-0.0794 0.0353-0.0494 0.0353-0.10936 0-0.0723-0.0423-0.11642-0.0406-0.0441-0.1076-0.0688-0.067-0.0265-0.14817-0.0459-0.0811-0.0194-0.16227-0.0406-0.0811-0.0229-0.14993-0.06-0.067-0.037-0.10936-0.097-0.0406-0.0617-0.0406-0.16052 0-0.0917 0.0476-0.16757 0.0494-0.0776 0.14993-0.12347 0.10054-0.0476 0.25753-0.0476 0.10407 0 0.20637 0.03 0.10231 0.0282 0.17639 0.0794l-0.0441 0.10407q-0.0794-0.0529-0.16934-0.0776-0.0882-0.0247-0.17109-0.0247-0.11113 0-0.18345 0.03-0.0723 0.03-0.1076 0.0811-0.0335 0.0494-0.0335 0.11289 0 0.0723 0.0406 0.11642 0.0423 0.0441 0.10936 0.0688 0.0688 0.0247 0.14993 0.0441 0.0811 0.0194 0.16051 0.0423 0.0811 0.0229 0.14817 0.06 0.0688 0.0353 0.10936 0.0952 0.0423 0.06 0.0423 0.15699 0 0.0899-0.0494 0.16756-0.0494 0.0758-0.1517 0.12348-0.10054 0.0459-0.25929 0.0459z"/>
<path id="se" d="m0 0h0.65264v0.11112h-0.65264zm0.0141 0.56974h0.7426v0.11289h-0.87313v-1.2347h0.84667v0.11289h-0.71614z"/>
<path id="sa" d="m0 0 0.56444-1.2347h0.12876l0.56445 1.2347h-0.13758l-0.51859-1.1589h0.0529l-0.51858 1.1589zm0.22225-0.32985 0.0388-0.10584h0.71791l0.0388 0.10584z"/>
<path id="sm" d="m0 0v-1.2347h0.1076l0.56444 0.96309h-0.0564l0.55915-0.96309h0.1076v1.2347h-0.12524v-1.0389h0.03l-0.51506 0.88194h-0.0617l-0.51859-0.88194h0.0335v1.0389z"/>
<path id="sr" d="m0 0v-1.2347h0.46214q0.15699 0 0.26988 0.0512 0.11288 0.0494 0.17286 0.14464 0.0617 0.0935 0.0617 0.22754 0 0.13053-0.0617 0.22578-0.06 0.0935-0.17286 0.14463-0.11289 0.0494-0.26988 0.0494h-0.38982l0.0582-0.06v0.45156zm0.84314 0-0.3175-0.44803h0.14111l0.31927 0.44803zm-0.71261-0.44097-0.0582-0.0617h0.38629q0.18521 0 0.28046-0.0811 0.097-0.0811 0.097-0.22754 0-0.14817-0.097-0.22931-0.0953-0.0811-0.28046-0.0811h-0.38629l0.0582-0.0617z"/>
<path id="sg" d="m0 0q-0.14112 0-0.26106-0.0459-0.11818-0.0476-0.20638-0.13229-0.0864-0.0847-0.13581-0.19932-0.0476-0.11465-0.0476-0.25047t0.0476-0.25048q0.0494-0.11465 0.13758-0.19932 0.0882-0.0847 0.20637-0.13052 0.11995-0.0476 0.26106-0.0476t0.25753 0.0441q0.11818 0.0441 0.20108 0.13405l-0.0811 0.0829q-0.0776-0.0776-0.1711-0.11112-0.0935-0.0335-0.20108-0.0335-0.11465 0-0.21167 0.0388-0.0953 0.037-0.16757 0.1076-0.0705 0.0688-0.11112 0.16227-0.0388 0.0917-0.0388 0.20285 0 0.10936 0.0388 0.20285 0.0406 0.0935 0.11112 0.16404 0.0723 0.0688 0.16757 0.1076 0.097 0.037 0.20991 0.037 0.10583 0 0.19932-0.0318 0.0953-0.0317 0.17462-0.1076l0.0741 0.0988q-0.0882 0.0776-0.20638 0.11818-0.11818 0.0388-0.24694 0.0388zm0.32808-0.17286v-0.45508h0.12524v0.47095z"/>
<path id="sn" d="m0 0v-1.2347h0.10759l0.85196 1.0724h-0.0564v-1.0724h0.12876v1.2347h-0.1076l-0.85019-1.0724h0.0564v1.0724z"/>
<path id="su" d="m0 0q-0.23637 0-0.37219-0.13582t-0.13582-0.40217v-0.70732h0.13053v0.70203q0 0.21872 0.0988 0.3228 0.0988 0.10406 0.2787 0.10406 0.18168 0 0.28045-0.10406 0.0988-0.10408 0.0988-0.3228v-0.70203h0.127v0.70732q0 0.26635-0.13582 0.40217-0.13405 0.13582-0.37041 0.13582z"/>
<path id="so" d="m0 0q-0.13935 0-0.2593-0.0459-0.11818-0.0476-0.20637-0.13229-0.0864-0.0864-0.13582-0.19932-0.0476-0.11465-0.0476-0.25047t0.0476-0.24871q0.0494-0.11465 0.13582-0.19932 0.0882-0.0864 0.20637-0.13229 0.11818-0.0476 0.2593-0.0476 0.13934 0 0.25752 0.0476 0.11818 0.0459 0.20461 0.13053 0.0882 0.0847 0.13582 0.19932 0.0494 0.11465 0.0494 0.25047t-0.0494 0.25047q-0.0476 0.11465-0.13582 0.19932-0.0864 0.0847-0.20461 0.13229-0.11818 0.0459-0.25752 0.0459zm0-0.11641q0.11112 0 0.20461-0.037 0.0953-0.0388 0.16404-0.1076 0.0705-0.0706 0.10936-0.16228 0.0388-0.0935 0.0388-0.20461 0-0.11112-0.0388-0.20285-0.0388-0.0935-0.10936-0.16228-0.0688-0.0705-0.16404-0.10759-0.0935-0.0388-0.20461-0.0388-0.11113 0-0.20638 0.0388-0.0952 0.037-0.16581 0.10759-0.0688 0.0688-0.10936 0.16228-0.0388 0.0917-0.0388 0.20285 0 0.10936 0.0388 0.20285 0.0406 0.0935 0.10936 0.16404 0.0706 0.0688 0.16581 0.1076 0.0952 0.037 0.20638 0.037z"/>
<path id="me" d="m0 0h1.1049v0.33973h-1.1049zm0.0318 0.9525h1.2541v0.34608h-1.6669v-2.2225h1.6224v0.34607h-1.2097z"/>
<path id="la" d="m0 0 4.4658-11.537 3.3904-0.68008 4.4779 9.743-3.4342 0.68888-3.3838-8.3055 1.3445-0.26969-3.2216 9.6305zm2.6528-2.3868 0.87536-2.7599 4.7056-0.94391 0.8783 2.4081z"/>
<path id="ln" d="m0 0-0.0061-10.64 2.8351-0.56869 5.0922 5.4545-1.1983 0.24038-0.0066-6.4746 3.3612-0.67422 0.0061 10.64-2.8351 0.5687-5.0922-5.4545 1.1983-0.24038 0.0066 6.4746z"/>
<path id="li" d="m0 0-0.0061-10.64 3.4489-0.69181 0.0061 10.64z"/>
<path id="lm" d="m0 0-0.0061-10.64 2.8058-0.56283 4.0724 6.1303-1.4906 0.29901 3.9213-7.7338 2.9374-0.58921 0.03528 10.634-3.142 0.63026-0.0354-5.7088 0.49101-0.1289-2.6131 5.3127-1.5198 0.30487-2.9138-4.2193 0.59334-0.0734 0.0062 5.7146z"/>
<path id="ll" d="m0 0-6e-3 -10.64 3.4488-0.69181 0.01032 7.8573 4.618-0.92632-0.0043 2.7828z"/>
<path id="ld" d="m0 0-0.0061-10.64 4.618-0.92632q1.6221-0.32539 2.8968-0.0338 1.2746 0.29158 2.0994 1.1446 0.82187 0.83846 1.0916 2.1829 0.27262 1.3591 0.0073 2.5372-0.25072 1.1752-0.95757 2.1227-0.69224 0.94455-1.7793 1.5882t-2.4899 0.92512zm3.4502-3.4892 1.6075-0.32245q0.92067-0.18468 1.4553-0.70237 0.54631-0.53524 0.73297-1.272 0.18373-0.75133 0.01664-1.5843-0.12019-0.59917-0.4507-0.95852-0.3159-0.36228-0.84213-0.48475-0.51161-0.1254-1.2131 0.0153l-1.3152 0.26383z"/>
<rect id="p" x="0" y="0" width="10.714" height="2.6785" rx="1.3392"/>
<g transform="translate(-23,178)"><rect transform="scale(-1,1)" x="-149" y="-178" width="126" height="178" style="paint-order:markers fill stroke"/>
</g><g transform="translate(-23 -34.5)"><g transform="matrix(.45328 0 0 .45328 9.3899 37.99)">
<use href="#s" x="0" y="0"/>
</g><g transform="matrix(.25658 0 0 .25658 116.64 113.95)">
<use href="#s" x="0" y="0"/>
</g><g transform="matrix(.25658 0 0 .25658 16.054 122.54)">
<use href="#s" x="0" y="0"/>
</g><g transform="matrix(.25658 0 0 .25658 57.325 155.63)">
<use href="#s" x="0" y="0"/>
</g><g transform="matrix(.16298 0 0 .16298 87.063 186.64)">
<use href="#s" x="0" y="0"/>
</g><g transform="matrix(.16298 0 0 .16298 23.888 163.65)">
<use href="#s" x="0" y="0"/>
</g><g transform="matrix(.25658 0 0 .25658 100.47 24.71)">
<use href="#s" x="0" y="0"/>
</g><g transform="matrix(.072159 0 0 .072159 76.887 188.26)">
<use href="#s" x="0" y="0"/>
</g><g transform="matrix(.072159 0 0 .072159 91.338 169.13)">
<use href="#s" x="0" y="0"/>
</g><g transform="matrix(.072159 0 0 .072159 44.698 172.6)">
<use href="#s" x="0" y="0"/>
</g><g transform="matrix(.072159 0 0 .072159 138.26 112.82)">
<use href="#s" x="0" y="0"/>
</g><g transform="matrix(.45328 0 0 .45328 111.4 136.04)">
<use href="#s" x="0" y="0"/>
</g>
</g><g transform="translate(-23 -34.5)">
<path transform="translate(3.9096e-7 212.5)" d="m36-165h100v71.253l-100 19.843z" fill="#64a9fe" stroke-linecap="round" stroke-linejoin="round" stroke-width=".33239" style="paint-order:markers fill stroke"/><g transform="rotate(15 -627.81 -577.11)" clip-path="url(#c)" stroke-width=".051758">
<path d="m216.89-93.001-0.42867-1.5998 3.1996-0.85734-0.85734-3.1996 9.5989-2.572-0.85734-3.1996 3.1996-0.85734-0.21433-0.7999-0.21434-0.79992 1.5998-0.42867-0.21434-0.7999-0.21433-0.79991 3.1996-0.85734-0.42867-1.5998-0.42867-1.5998-0.79991 0.21434-0.79991 0.21433-0.21433-0.7999-0.21434-0.79991-1.5998 0.42867-0.21433-0.79991-0.21434-0.7999-0.79991 0.21434-0.7999 0.21433-0.21434-0.79991-0.21433-0.7999 0.7999-0.21434 0.79991-0.21433-0.21433-0.79992-0.21433-0.7999 3.1996-0.85734 0.21434 0.79991 0.21433 0.79991 1.5998-0.42867 2.572 9.5989-1.5998 0.42867 0.42866 1.5998-0.79991 0.21434-0.7999 0.21433 1.7147 6.3993-3.1996 0.85734-0.85734-3.1996-3.1996 0.85734 0.643 2.3997 0.64301 2.3997-1.5998 0.42867 0.21434 0.79991 0.21433 0.79991-11.199 3.0007zm3.8272-11.314-0.42867-1.5998 3.1996-0.85733 0.85734 3.1996-3.1996 0.85734z" fill="#fefefe"/>
<path d="m250.97-145-1.5999 0.42891 0.4284 1.5999 0.42892 1.5994 0.79995-0.21394 0.79995-0.21446-0.42892-1.5999zm0.85731 3.1998 0.4284 1.5999 0.42891 1.5994 0.79995-0.21394 0.79944-0.21446-0.4284-1.5999-0.42892-1.5999-0.79995 0.21445zm2.4567 2.7709 0.42891 1.5999 0.4284 1.5999 1.5999-0.42892-0.4284-1.5999-0.42891-1.5999-0.79995 0.21445zm2.4572 2.7709 0.64337 2.3998 0.64286 2.3999 1.5999-0.42892-0.64337-2.3998-0.64286-2.3993-0.79995 0.21394zm1.2862 4.7997-0.79995 0.21394-0.79996 0.21446 0.42892 1.5999 0.4284 1.5999 0.79995-0.21446 0.79995-0.21445-0.42892-1.5999zm-0.74259 3.6282-0.79995 0.21446-0.79996 0.21394 0.42892 1.5999 0.4284 1.5999 1.5999-0.42891-0.4284-1.5994zm-0.74259 3.6282-0.79995 0.21446-0.79996 0.21394 0.42892 1.5999 0.42891 1.5999 0.79944-0.21446 0.79995-0.21394-0.4284-1.5999zm-1.5999 0.4284-0.42839-1.5994-0.42892-1.5999-0.79943 0.21446-0.79995 0.21394 0.42839 1.5999 0.42892 1.5999 0.79995-0.21446zm-2.4567-2.7709-0.42892-1.5994-0.4284-1.5999-0.79995 0.21394-0.79995 0.21446 0.4284 1.5999 0.42891 1.5999 0.79996-0.21445zm-2.4572-2.7709-0.64337-2.3998-0.64285-2.3993-0.79996 0.21394-0.79995 0.21446 0.64337 2.3998 0.64286 2.3998 0.79995-0.21445zm-1.2862-4.7992 0.79995-0.21446 0.79995-0.21445-0.42892-1.5999-0.42839-1.5994-0.79996 0.21394-0.79995 0.21446 0.42892 1.5999zm0.74259-3.6282 1.5999-0.42892-0.42892-1.5999-0.42839-1.5999-0.79995 0.21446-0.79996 0.21445 0.4284 1.5999zm4.4855 3.9419-1.5999 0.42891 0.21446 0.79943 0.21445 0.79996 0.79995-0.21394 0.79995-0.21446-0.21445-0.79995zm34.714 33.565-0.79995 0.21446-0.79995 0.21394 0.4284 1.5999 0.42891 1.5999 0.79995-0.21446 0.79995-0.21394-0.42891-1.5999zm3.6282 0.74259-0.79995 0.21394-0.79995 0.21446 0.21446 0.79995 0.21445 0.79995 0.79996-0.21446 0.79943-0.21446-0.21394-0.79944zm-6.828 0.11472-0.79996 0.21446-0.79995 0.21394 0.42892 1.5999 0.4284 1.5999 0.79995-0.21446 0.79995-0.21394-0.4284-1.5999zm-3.1998 0.85731-0.79943 0.21446-0.79995 0.21394 0.42839 1.5999 0.42892 1.5999 0.79995-0.21446 0.79943-0.21394-0.42839-1.5999zm-3.1993 0.85731-1.5999 0.42891 0.4284 1.5994 0.42891 1.5999 0.79995-0.21446 0.79996-0.21394-0.42892-1.5999zm-3.1998 0.85731-1.5999 0.42891 0.42891 1.5994 0.4284 1.5999 0.79995-0.21446 0.79995-0.21394-0.4284-1.5999zm17.284 0.51263-1.5999 0.42892 0.42892 1.5999-6.3996 1.7146-0.21394-0.79995-0.21446-0.79995-6.3991 1.7146 0.21394 0.79995 0.21445 0.79995-6.3991 1.7146-0.21446-0.79995-0.21445-0.79995-3.1993 0.85731-3.1998 0.85731 0.21445 0.79995 0.21394 0.79995-3.1993 0.85731-3.1998 0.85731-0.21446-0.79995-0.21394-0.79995-6.3996 1.7146 0.42892 1.5999-6.3996 1.7146-0.21394-0.79995-0.21446-0.79944-6.3991 1.7146 0.21394 0.79995 0.21446 0.79943-3.1998 0.85731-3.1993 0.85783-0.21445-0.79995-0.21446-0.79995-3.1993 0.85731-3.1998 0.85731 0.21445 0.79995 0.21394 0.79995-3.1993 0.85731-3.1998 0.85731-0.21446-0.79995-0.21394-0.79995-6.3996 1.7146 0.42892 1.5999-6.3991 1.7146-0.42892-1.5999-1.5999 0.42891 2.5719 9.5989 2.5719 9.5989 30.056-8.0538h46.023v-12.332l10.312-2.7631-2.5719-9.5989zm-20.484 0.34468-0.79943 0.21446-0.79995 0.21446 0.4284 1.5994 0.42891 1.5999 0.79995-0.21394 0.79944-0.21446-0.4284-1.5999zm-3.1993 0.85731-1.5999 0.42891 0.4284 1.5999 0.42892 1.5994 0.79995-0.21394 0.79995-0.21446-0.42892-1.5999zm-3.1998 0.85731-1.5999 0.42891 0.42891 1.5999 0.4284 1.5994 0.79995-0.21394 0.79995-0.21446-0.42839-1.5999zm-3.1998 0.85731-0.79944 0.21446-0.79995 0.21446 0.4284 1.5999 0.42891 1.5994 0.79995-0.21394 0.79996-0.21446-0.42892-1.5999zm-3.1993 0.85731-1.5999 0.42891 0.42839 1.5999 0.42892 1.5994 0.79995-0.21394 0.79995-0.21446-0.42891-1.5999zm-3.1998 0.85731-1.5999 0.42891 0.42892 1.5999 0.42839 1.5999 1.5999-0.42891-0.4284-1.5999zm-3.1998 0.85731-0.79944 0.21446-0.79995 0.21446 0.4284 1.5999 0.42892 1.5999 1.5999-0.42891-0.42892-1.5999zm-3.1993 0.85731-1.5999 0.42891 0.42891 1.5999 0.4284 1.5999 1.5999-0.42891-0.42891-1.5999zm-3.1998 0.85783-0.79995 0.21394-0.79996 0.21446 0.42892 1.5999 0.4284 1.5999 1.5999-0.42891-0.4284-1.5999zm-3.1998 0.85731-0.79943 0.21394-0.79995 0.21446 0.42839 1.5999 0.42892 1.5999 1.5999-0.42891-0.42891-1.5999zm-3.1993 0.85731-0.79995 0.21394-0.79995 0.21446 0.42892 1.5999 0.42839 1.5999 1.5999-0.42891-0.42892-1.5999zm-3.1998 0.85731-0.79995 0.21394-0.79995 0.21446 0.42891 1.5999 0.4284 1.5999 1.5999-0.42891-0.4284-1.5999zm-3.1993 0.85731-0.79995 0.21394-0.79995 0.21446 0.4284 1.5999 0.42891 1.5999 1.5999-0.42891-0.42891-1.5994zm-3.1998 0.85731-0.79995 0.21446-0.79996 0.21394 0.42892 1.5999 0.4284 1.5999 1.5999-0.42891-0.42892-1.5994zm-3.1998 0.85731-0.79995 0.21446-0.79995 0.21394 0.42891 1.5999 0.4284 1.5999 1.5999-0.42891-0.42839-1.5994zm-3.1993 0.85731-0.79995 0.21446-0.79995 0.21394 0.4284 1.5999 0.42891 1.5999 0.79995-0.21446 0.79996-0.21394-0.42892-1.5999zm-3.1998 0.85731-0.79995 0.21446-0.79995 0.21394 0.42891 1.5999 0.4284 1.5999 0.79995-0.21446 0.79995-0.21394-0.42891-1.5999zm-3.1998 0.85731-0.79995 0.21446-0.79995 0.21394 0.42892 1.5999 0.42839 1.5999 0.79996-0.21446 0.79995-0.21394-0.4284-1.5999zm-3.1993 0.85731-1.5999 0.42891 0.4284 1.5994 0.42892 1.5999 0.79995-0.21446 0.79995-0.21394-0.42892-1.5999zm-3.1998 0.85731-1.5999 0.42891 0.42891 1.5994 0.4284 1.5999 0.79995-0.21446 0.79995-0.21394-0.42891-1.5999zm-3.1998 0.85731-1.5999 0.42891 0.42892 1.5994 0.4284 1.5999 0.79995-0.21394 0.79995-0.21446-0.4284-1.5999z" fill="#cdcefe"/>
<path d="m183.81-101.28-13.717-51.194 102.39-27.435 21.433 79.991-1.5998 0.42867-0.21433-0.79991-0.21434-0.79991-0.7999 0.21434-0.79991 0.21433-0.21434-0.79991-0.21433-0.7999-83.19 22.291 0.21433 0.79991 0.21434 0.79991-1.5998 0.42867 0.21434 0.79991 0.21433 0.79991-1.5998 0.42867 6.0014 22.397-12.799 3.4294zm37.14 10.624-0.42867-1.5998 3.1996-0.85734 0.85734 3.1996 3.1996-0.85734-0.42866-1.5998-0.42867-1.5998 1.5998-0.42867-0.21433-0.79991-0.21434-0.79991 0.7999-0.21433 0.79992-0.21434-0.21434-0.79991-0.21433-0.79991 9.5989-2.572-0.42867-1.5998-0.42867-1.5998-3.1996 0.85734-0.85734-3.1996 1.5998-0.42867-0.21433-0.7999-0.21433-0.79991 0.7999-0.21434 0.79991-0.21433-1.286-4.7994-1.286-4.7994-0.79991 0.21434-0.79991 0.21433-0.21433-0.79991-0.21434-0.79991-3.1996 0.85734 0.21433 0.7999 0.21433 0.79992-1.5998 0.42867 0.21433 0.7999 0.21434 0.79991-3.1996 0.85734-0.21434-0.79991-0.21433-0.79991-0.79991 0.21434-0.7999 0.21433-0.21434-0.79991-0.21433-0.7999-4.7994 1.286 0.21434 0.7999 0.21433 0.79991-0.79991 0.21434-0.7999 0.21433 0.21433 0.7999 0.21434 0.79991-0.79992 0.21434-0.7999 0.21433 0.643 2.3997 0.64301 2.3997 0.7999-0.21434 0.79991-0.21433 0.21434 0.79991 0.21433 0.7999 1.5998-0.42867 0.85734 3.1996-3.1996 0.85734 0.21434 0.79991 0.21433 0.79991-1.5998 0.42866 0.21433 0.79991 0.21434 0.7999-1.5998 0.42867 2.572 9.5989 3.1996-0.85734zm36.022-31.943-0.42867-1.5998 0.79992-0.21434 0.7999-0.21433-0.85734-3.1996 0.79991-0.21434 0.7999-0.21433-0.42866-1.5998-0.42867-1.5998 0.79991-0.21434 0.7999-0.21433-0.643-2.3997-0.64301-2.3997-1.5998 0.42866-0.85734-3.1996-1.5998 0.42866-0.85734-3.1996-0.7999 0.21433-0.79992 0.21433-0.42866-1.5998-0.42867-1.5998-0.79991 0.21434-0.79991 0.21433 0.85734 3.1996-0.7999 0.21434-0.79992 0.21433 0.85734 3.1996-1.5998 0.42867 0.85734 3.1996-1.5998 0.42867 0.643 2.3997 0.64301 2.3997 1.5998-0.42867 0.85734 3.1996 1.5998-0.42867 0.42867 1.5998 0.42866 1.5998 1.5998-0.42867 0.42867 1.5998 0.42866 1.5998 1.5998-0.42867zm-35.326-10.253-0.21433-0.79991 1.5998-0.42867-0.643-2.3997-0.64301-2.3997 1.5998-0.42867-0.21434-0.79991-0.21433-0.7999 0.7999-0.21434 0.79991-0.21433-0.21433-0.79991-0.21434-0.79991 3.1996-0.85734-0.21433-0.79991-0.21434-0.7999-3.1996 0.85734-0.85734-3.1996-1.5998 0.42867-0.21433-0.79991-0.21434-0.79991-0.79991 0.21434-0.7999 0.21433-0.21434-0.79991-0.21433-0.7999-1.5998 0.42867 0.42866 1.5998 0.42867 1.5998-1.5998 0.42867-1.5998 0.42866-0.21433-0.79991-0.21434-0.7999-6.3992 1.7147 0.21433 0.7999 0.21434 0.79991-0.79992 0.21434-0.7999 0.21433 0.21433 0.7999 0.21434 0.79991-4.7994 1.286 0.21433 0.7999 0.21433 0.79992-1.5998 0.42866 0.21433 0.79991 0.21434 0.79991 6.3993-1.7147 0.21433 0.79991 0.21434 0.79991 0.7999-0.21434 0.79991-0.21433 0.21433 0.7999 0.21434 0.79991 1.5998-0.42867 0.42866 1.5998 0.42867 1.5998-3.1996 0.85734 0.85734 3.1996 11.199-3.0007z" fill="#64a9fe"/>
<path d="m216.03-96.2-0.42867-1.5998 1.5998-0.42867-0.21434-0.7999-0.21433-0.79991 0.7999-0.21433 0.79991-0.21433-0.21433-0.79991-0.21434-0.79991 6.3993-1.7147-0.85734-3.1996-4.7994 1.286-0.21433-0.7999-0.21434-0.79991-1.5998 0.42867-0.64301-2.3997-0.643-2.3997 1.5998-0.42867-0.21434-0.79991-0.21433-0.7999 1.5998-0.42867-0.21433-0.79991-0.21434-0.7999 2.3997-0.64301 2.3997-0.643 0.21433 0.7999 0.21434 0.79991 1.5998-0.42867 0.21433 0.79991 0.21434 0.79991 4.7994-1.286 0.21434 0.7999 0.21433 0.79991 0.7999-0.21434 0.79991-0.21433 0.64301 2.3997 0.643 2.3997-0.79991 0.21434-0.7999 0.21433 0.21433 0.79991 0.21434 0.7999-0.79992 0.21434-0.7999 0.21433 0.21434 0.79992 0.21433 0.7999-3.1996 0.85734 0.42867 1.5998 0.42867 1.5998-9.5989 2.572 0.85734 3.1996-3.1996 0.85734zm13.426-13.886-0.42867-1.5998-0.79991 0.21434-0.7999 0.21433 0.42867 1.5998 0.42867 1.5998 0.7999-0.21434 0.79991-0.21433zm-19.229-20.568-0.42867-1.5998 3.1996-0.85734 0.85734 3.1996-3.1996 0.85734zm12.041-12.657-0.21433-0.7999 4.7994-1.286 0.21434 0.7999 0.21433 0.79991-4.7994 1.286z" fill="#dba11e"/>
<path d="m251.84-128.94-0.21433-0.79991 1.5998-0.42866-0.21433-0.79992-0.21434-0.7999-3.1996 0.85734-0.42866-1.5998-0.42867-1.5998 0.79991-0.21434 0.7999-0.21433-0.42867-1.5998-0.42867-1.5998 1.5998-0.42867-0.42867-1.5998-0.42867-1.5998 1.5998-0.42867 0.85734 3.1996 1.5998-0.42867 0.21433 0.79991 0.21434 0.79991-1.5998 0.42867 0.21433 0.7999 0.21434 0.79991 3.1996-0.85734 0.21433 0.79991 0.21434 0.79991-3.1996 0.85734-0.21434-0.79991-0.21433-0.79991-0.7999 0.21434-0.79991 0.21433 0.42866 1.5998 0.42867 1.5998 1.5998-0.42867 0.21433 0.7999 0.21434 0.79992-1.5998 0.42867 0.21434 0.7999 0.21433 0.79991-1.5998 0.42867z" fill="#7dca06"/>
<path d="m207.32-64.717-3.0007-11.199 1.5998-0.42867-0.21433-0.79991-0.21434-0.79991 1.5998-0.42867-0.21434-0.79991-0.21433-0.79991 83.19-22.291 0.21433 0.7999 0.21434 0.79991 1.5998-0.42867 0.21434 0.79991 0.21433 0.79991 1.5998-0.42867 6.0014 22.397-1.5998 0.42867-2.572-9.5989-2.572-9.5989-1.5998 0.42867 0.42866 1.5998-6.3992 1.7147-0.21434-0.79991-0.21433-0.79991-6.3993 1.7147 0.21433 0.79991 0.21434 0.79991-6.3993 1.7147-0.21434-0.79991-0.21433-0.79991-6.3993 1.7147 0.21434 0.79991 0.21433 0.79991-6.3993 1.7147-0.21433-0.79991-0.21434-0.79991-6.3993 1.7147 0.21434 0.79991 0.21433 0.79991-6.3993 1.7147-0.21433-0.79991-0.21434-0.79991-6.3992 1.7147 0.42866 1.5998-6.3992 1.7147-0.21434-0.79991-0.21433-0.79991-6.3993 1.7147 0.21433 0.79991 0.21434 0.79991-6.3993 1.7147-0.21434-0.79991-0.21433-0.79991-6.3993 1.7147 0.21434 0.79991 0.21433 0.79991-6.3993 1.7147-0.21433-0.79991-0.21434-0.79991-1.5998 0.42867 5.144 19.198-1.5998 0.42867zm1.7988-12.485-0.42867-1.5998-1.5998 0.42867 0.42866 1.5998 0.42867 1.5998 1.5998-0.42867zm3.1996-0.85734-0.42867-1.5998-1.5998 0.42867 0.42866 1.5998 0.42867 1.5998 1.5998-0.42867zm3.1996-0.85734-0.42867-1.5998-1.5998 0.42867 0.85734 3.1996 1.5998-0.42867zm3.1996-0.85734-0.42867-1.5998-1.5998 0.42867 0.85734 3.1996 1.5998-0.42867zm3.1996-0.85734-0.42867-1.5998-1.5998 0.42867 0.85734 3.1996 1.5998-0.42867zm3.1996-0.85734-0.42867-1.5998-1.5998 0.42867 0.85734 3.1996 1.5998-0.42867zm3.1996-0.85734-0.42867-1.5998-1.5998 0.42867 0.85734 3.1996 1.5998-0.42867zm3.1996-0.85734-0.42866-1.5998-1.5998 0.42867 0.85734 3.1996 1.5998-0.42867zm3.1996-0.85734-0.42867-1.5998-1.5998 0.42867 0.85734 3.1996 1.5998-0.42867zm3.1996-0.85734-0.42867-1.5998-1.5998 0.42867 0.85734 3.1996 1.5998-0.42867zm3.1996-0.85734-0.42867-1.5998-1.5998 0.42867 0.85734 3.1996 1.5998-0.42867zm3.1996-0.85734-0.42867-1.5998-1.5998 0.42867 0.85734 3.1996 1.5998-0.42867zm3.1996-0.85734-0.42867-1.5998-1.5998 0.42867 0.85734 3.1996 1.5998-0.42867zm3.1996-0.85734-0.42867-1.5998-1.5998 0.42867 0.85734 3.1996 1.5998-0.42867zm3.1996-0.85734-0.42867-1.5998-1.5998 0.42867 0.42867 1.5998 0.42866 1.5998 1.5998-0.42867zm3.1996-0.85734-0.42867-1.5998-1.5998 0.42867 0.42866 1.5998 0.42867 1.5998 1.5998-0.42867zm3.1996-0.85734-0.42867-1.5998-1.5998 0.42867 0.85734 3.1996 1.5998-0.42867zm3.1996-0.85734-0.42867-1.5998-1.5998 0.42867 0.85734 3.1996 1.5998-0.42867zm3.1996-0.85734-0.42867-1.5998-1.5998 0.42867 0.85734 3.1996 1.5998-0.42867zm3.1996-0.85734-0.42867-1.5998-1.5998 0.42867 0.85734 3.1996 1.5998-0.42867zm3.1996-0.85734-0.42867-1.5998-1.5998 0.42867 0.85734 3.1996 1.5998-0.42867zm3.1996-0.85734-0.42867-1.5998-1.5998 0.42867 0.85734 3.1996 1.5998-0.42867zm3.1996-0.85734-0.42866-1.5998-1.5998 0.42867 0.85734 3.1996 1.5998-0.42867zm3.1996-0.85734-0.42867-1.5998-1.5998 0.42867 0.85734 3.1996 1.5998-0.42867zm3.1996-0.85734-0.42867-1.5998-1.5998 0.42867 0.85734 3.1996 1.5998-0.42867zm3.1996-0.85734-0.42867-1.5998-1.5998 0.42867 0.85734 3.1996 1.5998-0.42867zm3.414-0.05743-0.21434-0.79991-1.5998 0.42867 0.21433 0.79991 0.21434 0.79991 1.5998-0.42867zm-38.013-26.68-0.42867-1.5998-1.5998 0.42866-0.21434-0.79991-0.21433-0.7999 0.79991-0.21434 0.7999-0.21433-0.21433-0.79991-0.21434-0.7999-3.1996 0.85733-0.21433-0.79991-0.21434-0.7999 3.1996-0.85734 0.21434 0.7999 0.21433 0.79992 0.79992-0.21434 0.7999-0.21433-0.85734-3.1996-1.5998 0.42867-0.21433-0.79992-0.21433-0.7999 1.5998-0.42867-0.21434-0.79991-0.21433-0.7999 0.79991-0.21434 0.79991-0.21433 0.21433 0.7999 0.21434 0.79991-0.79991 0.21434-0.79991 0.21433 0.21433 0.79991 0.21434 0.79991 3.1996-0.85734 0.42867 1.5998 0.42867 1.5998-1.5998 0.42867 0.42867 1.5998 0.42867 1.5998-1.5998 0.42867 0.42866 1.5998 0.42867 1.5998-1.5998 0.42866z" fill="#006b96"/>
<path d="m213-133.11-0.85733-3.1996-0.79992 0.21434-0.7999 0.21433-0.21434-0.79991-0.21433-0.7999-1.5998 0.42867-0.21434-0.79991-0.21433-0.79991-6.3993 1.7147-0.21434-0.79991-0.21433-0.79991 1.5998-0.42866-0.21433-0.79992-0.21433-0.7999 9.5989-2.572 0.21434 0.7999 0.21433 0.79991 1.5998-0.42867 0.21433 0.79991 0.21434 0.79991 3.1996-0.85734-0.64301-2.3997-0.643-2.3997 0.7999-0.21434 0.79991-0.21433-0.42867-1.5998-0.42866-1.5998 0.7999-0.21434 0.79991-0.21433 0.21433 0.7999 0.21434 0.79991 1.5998-0.42867 0.21434 0.79991 0.21433 0.79991 0.79991-0.21434 0.79991-0.21433 0.42867 1.5998 0.42867 1.5998-1.5998 0.42867-0.21434-0.79991-0.21433-0.79991-0.79991 0.21434-0.7999 0.21433 0.85734 3.1996 3.1996-0.85734 0.21434 0.79991 0.21433 0.79991-1.5998 0.42867 0.21433 0.7999 0.21434 0.79991-0.79991 0.21434-0.79991 0.21433 0.64301 2.3997 0.643 2.3997-0.79991 0.21434-0.7999 0.21433 0.42866 1.5998-7.9991 2.1433z" fill="#a33300"/>
<path d="m217.75-89.801-0.42867-1.5998 3.1996-0.85734 0.85734 3.1996-3.1996 0.85734zm6.3993-1.7147-0.42867-1.5998 3.1996-0.85734 0.42867 1.5998 0.42866 1.5998-3.1996 0.85734zm4.6846-8.1139-0.42867-1.5998 3.1996-0.85734 0.42867 1.5998 0.42867 1.5998-3.1996 0.85734zm6.3993-1.7147-0.42867-1.5998 3.1996-0.85734 0.85734 3.1996-3.1996 0.85734zm-7.3715-8.3129-0.42867-1.5998 1.5998-0.42867 0.42867 1.5998 0.42867 1.5998-1.5998 0.42867zm4.7994-1.286-0.42867-1.5998 1.5998-0.42867 0.85734 3.1996-0.79992 0.21434-0.7999 0.21433zm-18.387-30.224-0.21433-0.79991-0.79991 0.21434-0.79991 0.21433-0.21433-0.79991-0.21434-0.7999-4.7994 1.286-0.21434-0.79991-0.21433-0.7999 1.5998-0.42867-0.21434-0.79991-0.21433-0.7999 6.3992-1.7147 0.21434 0.7999 0.21433 0.79991 1.5998-0.42866 1.286 4.7994-3.1996 0.85734zm6.1849-2.5146-0.42867-1.5998 1.5998-0.42867 0.85734 3.1996-0.79991 0.21434-0.7999 0.21433z" fill="#00305b"/>
</g>
<g aria-label="ANIMALIA DREAMLAND" fill="#006b96" stroke-width=".26458">
<use href="#la" x="35.97" y="154.76"/>
<use href="#ln" x="48.735" y="152.2"/>
<use href="#li" x="60.36" y="149.87"/>
<use href="#lm" x="65.35" y="148.87"/>
<use href="#la" x="78.057" y="146.32"/>
<use href="#ll" x="90.822" y="143.76"/>
<use href="#li" x="99.714" y="141.98"/>
<use href="#la" x="103.59" y="141.2"/>
<use href="#ld" x="36.023" y="169.89"/>
<path d="m47.695 167.54-0.0061-10.64 4.5887-0.92046q2.0313-0.40746 3.3208 0.26119 1.2865 0.65404 1.6061 2.2469 0.25796 1.286-0.19157 2.3795-0.43492 1.0906-1.4956 1.8658-1.046 0.77229-2.6243 1.0889l-3.3027 0.66249 1.5511-1.8161 0.0024 4.18zm6.2547-1.2546-2.8519-3.3044 3.5512-0.71233 2.8811 3.2985zm-2.8138-3.1904-1.5266-1.3204 2.9374-0.58922q0.71608-0.14363 1.0403-0.57351 0.32129-0.4445 0.19231-1.0875-0.11139-0.55533-0.50903-0.71879-0.38595-0.18102-0.98512-0.0608l-2.6743 0.53645 1.5189-1.9769z"/>
<path d="m61.61 158.06 4.5595-0.9146 0.0015 2.584-4.5595 0.91459zm0.22732 3.9373 5.1294-1.0289-0.0043 2.7068-8.5052 1.7061-0.0061-10.64 8.3152-1.668-0.0043 2.7068-4.9248 0.98789z"/>
<use href="#la" x="67.665" y="163.54"/>
<use href="#lm" x="80.43" y="160.98"/>
<use href="#ll" x="93.727" y="158.31"/>
<use href="#la" x="102.35" y="156.58"/>
<use href="#ln" x="115.12" y="154.02"/>
<use href="#ld" x="126.3" y="151.78"/>
</g>
<g fill="#806600">
<path transform="translate(3.9096e-7 212.5)" d="m120.16-43-0.67128 1.5637-1.003-1.3751-0.49196 1.6288-1.1503-1.2542-0.30696 1.6738-1.2831-1.1172-0.11731 1.6976-1.4009-0.96687 0.0739 1.7007-1.5002-0.80408 0.26355 1.681-1.5808-0.63045 0.4501 1.6412-1.6412-0.4501 0.63045 1.5808-1.681-0.26355 0.80409 1.5002-1.7007-0.0739 0.96687 1.4009-1.6976 0.11731 1.1172 1.2831-1.6738 0.30696 1.2542 1.1503-1.6288 0.49196 1.3751 1.003-1.5637 0.67128 1.4785 0.84233-1.4785 0.84232 1.5637 0.67179-1.3751 1.0025 1.6288 0.49248-1.2542 1.1503 1.6738 0.30644-1.1172 1.2836 1.6976 0.11731-0.96687 1.4004 1.7007-0.07338-0.80409 1.5002 1.681-0.26355-0.63045 1.5808 1.6412-0.4501-0.4501 1.6412 1.5808-0.63097-0.26355 1.6816 1.5002-0.80409-0.0739 1.7002 1.4009-0.96687 0.11731 1.6981 1.2831-1.1178 0.30696 1.6743 1.1503-1.2542 0.49196 1.6288 1.003-1.3751 0.67128 1.5637 0.84232-1.4785 0.84233 1.4785 0.67179-1.5637 1.0025 1.3751 0.49247-1.6288 1.1503 1.2542 0.30644-1.6743 1.2836 1.1178 0.11731-1.6981 1.4004 0.96687-0.0734-1.7002 1.5002 0.80409-0.26356-1.6816 1.5808 0.63097-0.4501-1.6412 1.6412 0.4501-0.63097-1.5808 1.6816 0.26355-0.80408-1.5002 1.7002 0.07338-0.96687-1.4004 1.6981-0.11731-1.1178-1.2836 1.6743-0.30644-1.2542-1.1503 1.6288-0.49248-1.3751-1.0025 1.5637-0.67179-1.4785-0.84232 1.4785-0.84233-1.5637-0.67128 1.3751-1.003-1.6288-0.49196 1.2542-1.1503-1.6743-0.30696 1.1178-1.2831-1.6981-0.11731 0.96687-1.4009-1.7002 0.0739 0.80408-1.5002-1.6816 0.26355 0.63097-1.5808-1.6412 0.4501 0.4501-1.6412-1.5808 0.63045 0.26356-1.681-1.5002 0.80408 0.0734-1.7007-1.4004 0.96687-0.11731-1.6976-1.2836 1.1172-0.30644-1.6738-1.1503 1.2542-0.49247-1.6288-1.0025 1.3751-0.67179-1.5637-0.84233 1.4785z"/>
<path transform="translate(3.9096e-7 212.5)" d="m121-40c-6.6272 1.16e-4 -12 5.3725-12 12-1.7e-4 6.6275 5.3723 12 12 12 6.6276 1.66e-4 12-5.3726 12-12-1.2e-4 -6.6274-5.3728-12-12-12zm0 0.99994c6.0752-1.99e-4 11 4.9246 11 11 2e-4 6.0754-4.925 11.001-11 11-6.0752-8.3e-5 -11-4.9251-11-11 9e-5 -6.075 4.9248-11 11-11zm0 0.50023c-5.7987 2.1e-4 -10.499 4.7009-10.5 10.5-7e-5 5.7989 4.7007 10.5 10.5 10.5 5.7991 7.2e-5 10.5-4.701 10.5-10.5-2.1e-4 -5.7989-4.7012-10.5-10.5-10.5z" fill="#fff"/>
<g aria-label="THIS SEAL MARKS A GENUINE">
<use href="#st" x="116.85" y="180.2"/>
<use href="#sh" x="118.53" y="178.97"/>
<use href="#si" x="119.06" y="180.2"/>
<use href="#ss" x="119.93" y="180.21"/>
<use href="#ss" x="121.48" y="180.21"/>
<use href="#se" x="122.34" y="179.52"/>
<use href="#sa" x="123.2" y="180.2"/>
<path d="m124.67 180.2v-1.2347h0.13053v1.1218h0.69144v0.11289z"/>
<use href="#sm" x="112.53" y="182.42"/>
<use href="#sa" x="114.02" y="182.42"/>
<use href="#sr" x="115.48" y="182.42"/>
<path d="m116.87 182.11-5e-3 -0.15875 0.74789-0.76906h0.14993l-0.54504 0.5715-0.0741 0.0794zm-0.11289 0.30692v-1.2347h0.13053v1.2347zm0.88724 0-0.53269-0.61384 0.0882-0.0952 0.59972 0.70909z"/>
<use href="#ss" x="118.33" y="182.43"/>
<use href="#sa" x="119.33" y="182.42"/>
<use href="#sg" x="121.8" y="182.43"/>
<use href="#se" x="122.74" y="181.74"/>
<use href="#sn" x="123.8" y="182.42"/>
<use href="#su" x="125.73" y="182.43"/>
<use href="#si" x="126.63" y="182.42"/>
<use href="#sn" x="127.17" y="182.42"/>
<use href="#se" x="128.72" y="181.74"/>
</g>
<g stroke-width=".26458" aria-label="HOMEBREW">
<path d="m112.63 183.39h0.41275v2.2225h-0.41275zm-1.1494 2.2225h-0.41275v-2.2225h0.41275zm1.1811-0.9525h-1.216v-0.35243h1.216z"/>
<path d="m114.6 185.64q-0.26035 0-0.47943-0.0857-0.21907-0.0857-0.381-0.23813-0.16192-0.15557-0.25082-0.36195-0.0889-0.20955-0.0889-0.4572t0.0889-0.45402q0.0889-0.20955 0.25082-0.36195 0.16193-0.15558 0.381-0.2413 0.21908-0.0857 0.47625-0.0857 0.26035 0 0.47625 0.0857 0.21908 0.0857 0.381 0.2413 0.16193 0.1524 0.25083 0.36195 0.0889 0.20637 0.0889 0.45402t-0.0889 0.4572-0.25083 0.36195q-0.16192 0.1524-0.381 0.23813-0.2159 0.0857-0.47307 0.0857zm-3e-3 -0.36195q0.16828 0 0.31115-0.0572 0.14288-0.0571 0.24765-0.16193 0.10478-0.10795 0.16193-0.24765 0.0603-0.14287 0.0603-0.31432t-0.0603-0.31115q-0.0571-0.14288-0.16193-0.24765-0.10477-0.10795-0.24765-0.1651-0.14287-0.0571-0.31115-0.0571-0.16827 0-0.31115 0.0571-0.1397 0.0572-0.24765 0.1651-0.10477 0.10477-0.1651 0.24765-0.0572 0.1397-0.0572 0.31115 0 0.16827 0.0572 0.31115 0.0603 0.14287 0.1651 0.25082 0.10478 0.10478 0.24765 0.16193 0.14288 0.0572 0.31115 0.0572z"/>
<path d="m116.14 185.61v-2.2225h0.33972l0.97155 1.6224h-0.1778l0.95568-1.6224h0.33972l3e-3 2.2225h-0.39053l-3e-3 -1.6097h0.0825l-0.8128 1.3557h-0.18415l-0.8255-1.3557h0.0953v1.6097z"/>
<use href="#me" x="119.46" y="184.31"/>
<path d="m121.12 185.61v-2.2225h1.0414q0.40005 0 0.6096 0.15875 0.20955 0.15557 0.20955 0.4191 0 0.1778-0.0825 0.3048-0.0825 0.12382-0.22225 0.19367-0.13653 0.0667-0.29845 0.0667l0.0571-0.1143q0.18732 0 0.33655 0.0699 0.14922 0.0667 0.23495 0.19685 0.0889 0.13018 0.0889 0.32385 0 0.28575-0.21908 0.4445-0.21907 0.15875-0.65087 0.15875zm0.41275-0.32385h0.66675q0.23177 0 0.3556-0.0762 0.12382-0.0762 0.12382-0.24448 0-0.1651-0.12382-0.2413-0.12383-0.0794-0.3556-0.0794h-0.6985v-0.32067h0.61595q0.2159 0 0.3302-0.0762 0.11747-0.0762 0.11747-0.2286 0-0.15558-0.11747-0.23178-0.1143-0.0762-0.3302-0.0762h-0.5842z"/>
<path d="m123.44 185.61v-2.2225h0.9144q0.29528 0 0.50483 0.0952 0.21272 0.0953 0.32702 0.27305 0.1143 0.1778 0.1143 0.42227 0 0.24448-0.1143 0.42228-0.1143 0.17462-0.32702 0.26987-0.20955 0.0921-0.50483 0.0921h-0.6858l0.18415-0.18732v0.83502zm1.4542 0-0.56197-0.80645h0.44132l0.56515 0.80645zm-1.0414-0.79058-0.18415-0.19685h0.66675q0.27305 0 0.40958-0.11747 0.1397-0.11748 0.1397-0.32703 0-0.21272-0.1397-0.32702-0.13653-0.1143-0.40958-0.1143h-0.66675l0.18415-0.2032z"/>
<use href="#me" x="126.06" y="184.31"/>
<path d="m128.2 185.61-0.7366-2.2225h0.42862l0.65723 2.0098h-0.21273l0.68263-2.0098h0.381l0.66357 2.0098h-0.20637l0.6731-2.0098h0.3937l-0.7366 2.2225h-0.43815l-0.60643-1.8129h0.1143l-0.61595 1.8129z"/>
</g>
<g aria-label="BUT HAS NO OTHER MEANING">
<path d="m112.16 187.81v-1.2347h0.53269q0.20638 0 0.31927 0.0829 0.11465 0.0829 0.11465 0.23459 0 0.10055-0.0476 0.16934-0.0459 0.0688-0.127 0.10407-0.0794 0.0353-0.17463 0.0353l0.03-0.0423q0.11818 0 0.20284 0.037 0.0864 0.0353 0.13406 0.10759 0.0476 0.0705 0.0476 0.17639 0 0.15699-0.11641 0.24342-0.11466 0.0864-0.34749 0.0864zm0.13053-0.1076h0.43568q0.16228 0 0.24871-0.0547 0.0864-0.0564 0.0864-0.17815 0-0.11994-0.0864-0.17463-0.0864-0.0564-0.24871-0.0564h-0.44979v-0.1076h0.40745q0.14817 0 0.22931-0.0564 0.0829-0.0565 0.0829-0.16757 0-0.11289-0.0829-0.16757-0.0811-0.0565-0.22931-0.0565h-0.39334z"/>
<use href="#su" x="113.99" y="187.83"/>
<use href="#st" x="115.1" y="187.8"/>
<use href="#sh" x="117.24" y="186.58" />
<use href="#sa" x="117.57" y="187.81"/>
<use href="#ss" x="119.37" y="187.83"/>
<use href="#sn" x="120.58" y="187.81"/>
<use href="#so" x="122.55" y="187.83"/>
<use href="#so" x="124.5" y="187.83"/>
<use href="#st" x="125.66" y="187.81"/>
<use href="#sh" x="127.33" y="186.58"/>
<use href="#se" x="127.98" y="187.13"/>
<use href="#sr" x="129.05" y="187.81"/>
<use href="#sm" x="116.79" y="190.03"/>
<use href="#se" x="118.59" y="189.35"/>
<use href="#sa" x="119.46" y="190.03"/>
<use href="#sn" x="120.92" y="190.03"/>
<use href="#si" x="122.36" y="190.03"/>
<use href="#sn" x="122.89" y="190.03"/>
<use href="#sg" x="124.86" y="190.04"/>
</g></g>
<g transform="translate(.82625 213.57)" fill="none" stroke="#808080" stroke-linecap="round" stroke-linejoin="round" stroke-width=".5" style="paint-order:markers fill stroke">
<path d="m53.303-28.562a1.1793 1.1793 0 0 0-1.1793-1.1793 1.1793 1.1793 0 0 0-0.75022 0.27027 10.754 10.754 0 0 0-6.8356 9.6789 12.197 12.197 0 0 1 7.5955-7.5907 1.1793 1.1793 0 0 0 1.1696-1.1793z"/>
<use href="#p" x="52.508" y="-24.208"/>
<use href="#p" x="40.125" y="-18.052"/>
</g>
<g fill="#808080" stroke-width=".26458" aria-label="PLATFORMING">
<path d="m36.785 204.61v-2.9633h1.1091q0.37677 0 0.6477 0.12277 0.27093 0.11853 0.41487 0.34713 0.14817 0.22437 0.14817 0.5461 0 0.31327-0.14817 0.54187-0.14393 0.22436-0.41487 0.34713t-0.6477 0.12277h-0.93557l0.1397-0.14817v1.0837zm0.31327-1.0583-0.1397-0.1524h0.9271q0.4445 0 0.6731-0.1905 0.23283-0.19473 0.23283-0.5461 0-0.3556-0.23283-0.55033-0.2286-0.19473-0.6731-0.19473h-0.9271l0.1397-0.14817z"/>
<path d="m39.583 204.61v-2.9633h0.31327v2.6924h1.6595v0.27093z"/>
<path d="m41.902 204.61 1.3547-2.9633h0.30903l1.3547 2.9633h-0.3302l-1.2446-2.7813h0.127l-1.2446 2.7813zm0.5334-0.79163 0.09313-0.254h1.723l0.09313 0.254z"/>
<path d="m45.839 204.61v-2.6924h-1.0414v-0.27094h2.3961v0.27094h-1.0414v2.6924z"/>
<path d="m47.972 203.08h1.5663v0.27093h-1.5663zm0.03387 1.5282h-0.31327v-2.9633h2.032v0.27094h-1.7187z"/>
<path d="m51.63 204.63q-0.33443 0-0.6223-0.11006-0.28363-0.1143-0.4953-0.3175-0.20743-0.20744-0.32597-0.47837-0.1143-0.27517-0.1143-0.60113 0-0.32597 0.1143-0.5969 0.11853-0.27517 0.32597-0.47837 0.21167-0.20743 0.4953-0.3175 0.28363-0.1143 0.6223-0.1143 0.33443 0 0.61807 0.1143 0.28363 0.11007 0.49107 0.31327 0.21167 0.2032 0.32597 0.47837 0.11853 0.27516 0.11853 0.60113 0 0.32596-0.11853 0.60113-0.1143 0.27517-0.32597 0.47837-0.20743 0.2032-0.49107 0.3175-0.28363 0.11006-0.61807 0.11006zm0-0.2794q0.2667 0 0.49107-0.0889 0.2286-0.0931 0.3937-0.25823 0.16933-0.16933 0.26247-0.38947 0.09313-0.22436 0.09313-0.49106t-0.09313-0.48684q-0.09313-0.22436-0.26247-0.38946-0.1651-0.16933-0.3937-0.25823-0.22437-0.0931-0.49107-0.0931t-0.4953 0.0931q-0.2286 0.0889-0.39793 0.25823-0.1651 0.1651-0.26247 0.38946-0.09313 0.22014-0.09313 0.48684 0 0.26246 0.09313 0.48683 0.09737 0.22437 0.26247 0.3937 0.16933 0.1651 0.39793 0.25823 0.2286 0.0889 0.4953 0.0889z"/>
<path d="m53.886 204.61v-2.9633h1.1091q0.37677 0 0.6477 0.12277 0.27093 0.11853 0.41487 0.34713 0.14817 0.22437 0.14817 0.5461 0 0.31327-0.14817 0.54187-0.14393 0.22436-0.41487 0.34713-0.27093 0.11853-0.6477 0.11853h-0.93557l0.1397-0.14393v1.0837zm2.0235 0-0.762-1.0753h0.33867l0.76623 1.0753zm-1.7103-1.0583-0.1397-0.14817h0.9271q0.4445 0 0.6731-0.19473 0.23283-0.19473 0.23283-0.5461 0-0.3556-0.23283-0.55033-0.2286-0.19473-0.6731-0.19473h-0.9271l0.1397-0.14817z"/>
<path d="m56.947 204.61v-2.9633h0.25823l1.3547 2.3114h-0.13547l1.342-2.3114h0.25823v2.9633h-0.30057v-2.4934h0.07197l-1.2361 2.1167h-0.14817l-1.2446-2.1167h0.08043v2.4934z"/>
<path d="m60.99 204.61v-2.9633h0.31327v2.9633z"/>
<path d="m62.268 204.61v-2.9633h0.25823l2.0447 2.5739h-0.13547v-2.5739h0.30903v2.9633h-0.25823l-2.0405-2.5739h0.13547v2.5739z"/>
<path d="m67.01 204.63q-0.33867 0-0.62653-0.11006-0.28363-0.1143-0.4953-0.3175-0.20743-0.2032-0.32597-0.47837-0.1143-0.27517-0.1143-0.60113 0-0.32597 0.1143-0.60113 0.11853-0.27517 0.3302-0.47837 0.21167-0.2032 0.4953-0.31327 0.28787-0.1143 0.62653-0.1143 0.33867 0 0.61807 0.10584 0.28363 0.10583 0.4826 0.32173l-0.19473 0.19897q-0.18627-0.18627-0.41063-0.2667-0.22437-0.0804-0.4826-0.0804-0.27517 0-0.508 0.0931-0.2286 0.0889-0.40217 0.25823-0.16933 0.1651-0.2667 0.38947-0.09313 0.22013-0.09313 0.48683 0 0.26246 0.09313 0.48683 0.09737 0.22437 0.2667 0.3937 0.17357 0.1651 0.40217 0.25823 0.23283 0.0889 0.50377 0.0889 0.254 0 0.47837-0.0762 0.2286-0.0762 0.4191-0.25823l0.1778 0.23707q-0.21167 0.18626-0.4953 0.28363-0.28363 0.0931-0.59267 0.0931zm0.7874-0.41486v-1.0922h0.30057v1.1303z"/>
</g>
</g></svg>
