<?xml version="1.0" encoding="UTF-8" standalone="no"?>
<!-- Created with Inkscape (http://www.inkscape.org/) -->

<svg
   width="126mm"
   height="178mm"
   viewBox="0 0 126 178"
   version="1.1"
   id="svg5"
   xml:space="preserve"
   xmlns="http://www.w3.org/2000/svg"
   xmlns:svg="http://www.w3.org/2000/svg"><defs
     id="defs2"><filter
       style="color-interpolation-filters:sRGB"
       id="filter15212"
       x="-0.049939202"
       y="-0.049939202"
       width="1.0998784"
       height="1.0998784"><feGaussianBlur
         stdDeviation="0.23266306"
         id="feGaussianBlur15214" /></filter><filter
       style="color-interpolation-filters:sRGB"
       id="filter15216"
       x="-0.18179211"
       y="-0.18179211"
       width="1.3635842"
       height="1.3635842"><feGaussianBlur
         stdDeviation="0.54876587"
         id="feGaussianBlur15218" /></filter><clipPath
       clipPathUnits="userSpaceOnUse"
       id="clipPath15231"><path
         id="path15233"
         style="fill:#64a9fe;stroke-width:0.332388;stroke-linecap:round;stroke-linejoin:round;paint-order:markers fill stroke"
         d="m 175.04085,-145.58644 96.59273,-25.88137 18.44115,68.82476 -91.45721,45.047897 z" /></clipPath></defs><g
     id="layer1"
     transform="translate(-23,178)"
     style="display:inline"><rect
       style="display:inline;fill:#000000;stroke:none;stroke-width:0.352777;stroke-linecap:round;stroke-linejoin:round;paint-order:markers fill stroke"
       id="rect61-4"
       width="126"
       height="178"
       x="-149"
       y="-178"
       transform="scale(-1,1)" /></g><g
     id="layer4"
     transform="translate(-23,-34.50001)"><g
       id="g15222"
       transform="matrix(0.45328122,0,0,0.45328122,9.3898761,37.990381)"><path
         style="opacity:1;fill:#5555ff;fill-opacity:1;stroke:none;stroke-width:0.499999;stroke-linecap:round;stroke-linejoin:round;stroke-dasharray:none;paint-order:markers fill stroke;filter:url(#filter15212)"
         id="path15156"
         d="m 51.593748,69.585413 -2.188783,-0.285381 1.52912,1.591857 -2.040341,-0.842156 1.065014,1.933381 -1.752852,-1.341539 0.528329,2.143149 -1.345909,-1.749499 -0.04436,2.206864 -0.847245,-2.038233 -0.614028,2.120185 -0.290842,-2.188064 -1.14185,1.889019 0.285381,-2.188783 -1.591857,1.52912 0.842156,-2.040341 -1.933381,1.065014 1.341539,-1.752852 -2.143149,0.528328 1.749499,-1.345909 -2.206864,-0.04436 2.038232,-0.847245 -2.120185,-0.614028 2.188065,-0.290842 -1.889019,-1.14185 2.188783,0.28538 -1.52912,-1.591856 2.040341,0.842155 -1.065014,-1.933381 1.752852,1.341539 -0.528329,-2.143148 1.345909,1.749498 0.04436,-2.206863 0.847245,2.038232 0.614028,-2.120185 0.290842,2.188065 1.14185,-1.88902 -0.285381,2.188784 1.591857,-1.52912 -0.842155,2.04034 1.93338,-1.065013 -1.341538,1.752852 2.143148,-0.528329 -1.749498,1.345909 2.206863,0.04436 -2.038232,0.847244 2.120185,0.614029 -2.188065,0.290842 z" /><circle
         style="opacity:1;mix-blend-mode:normal;fill:#ffffff;fill-opacity:1;stroke:none;stroke-width:0.65699;stroke-linecap:round;stroke-linejoin:round;stroke-dasharray:none;paint-order:markers fill stroke;filter:url(#filter15216)"
         id="path15210"
         cx="46.302082"
         cy="67.73333"
         r="3.6223743"
         transform="matrix(0.87361629,0,0,0.87361629,5.8518288,8.5603894)" /></g><g
       id="g15228"
       transform="matrix(0.25658442,0,0,0.25658442,116.63502,113.94872)"><path
         style="opacity:1;fill:#5555ff;fill-opacity:1;stroke:none;stroke-width:0.499999;stroke-linecap:round;stroke-linejoin:round;stroke-dasharray:none;paint-order:markers fill stroke;filter:url(#filter15212)"
         id="path15224"
         d="m 51.593748,69.585413 -2.188783,-0.285381 1.52912,1.591857 -2.040341,-0.842156 1.065014,1.933381 -1.752852,-1.341539 0.528329,2.143149 -1.345909,-1.749499 -0.04436,2.206864 -0.847245,-2.038233 -0.614028,2.120185 -0.290842,-2.188064 -1.14185,1.889019 0.285381,-2.188783 -1.591857,1.52912 0.842156,-2.040341 -1.933381,1.065014 1.341539,-1.752852 -2.143149,0.528328 1.749499,-1.345909 -2.206864,-0.04436 2.038232,-0.847245 -2.120185,-0.614028 2.188065,-0.290842 -1.889019,-1.14185 2.188783,0.28538 -1.52912,-1.591856 2.040341,0.842155 -1.065014,-1.933381 1.752852,1.341539 -0.528329,-2.143148 1.345909,1.749498 0.04436,-2.206863 0.847245,2.038232 0.614028,-2.120185 0.290842,2.188065 1.14185,-1.88902 -0.285381,2.188784 1.591857,-1.52912 -0.842155,2.04034 1.93338,-1.065013 -1.341538,1.752852 2.143148,-0.528329 -1.749498,1.345909 2.206863,0.04436 -2.038232,0.847244 2.120185,0.614029 -2.188065,0.290842 z" /><circle
         style="opacity:1;mix-blend-mode:normal;fill:#ffffff;fill-opacity:1;stroke:none;stroke-width:0.65699;stroke-linecap:round;stroke-linejoin:round;stroke-dasharray:none;paint-order:markers fill stroke;filter:url(#filter15216)"
         id="circle15226"
         cx="46.302082"
         cy="67.73333"
         r="3.6223743"
         transform="matrix(0.87361629,0,0,0.87361629,5.8518288,8.5603894)" /></g><g
       id="g15239"
       transform="matrix(0.25658442,0,0,0.25658442,16.053981,122.53952)"><path
         style="opacity:1;fill:#5555ff;fill-opacity:1;stroke:none;stroke-width:0.499999;stroke-linecap:round;stroke-linejoin:round;stroke-dasharray:none;paint-order:markers fill stroke;filter:url(#filter15212)"
         id="path15235"
         d="m 51.593748,69.585413 -2.188783,-0.285381 1.52912,1.591857 -2.040341,-0.842156 1.065014,1.933381 -1.752852,-1.341539 0.528329,2.143149 -1.345909,-1.749499 -0.04436,2.206864 -0.847245,-2.038233 -0.614028,2.120185 -0.290842,-2.188064 -1.14185,1.889019 0.285381,-2.188783 -1.591857,1.52912 0.842156,-2.040341 -1.933381,1.065014 1.341539,-1.752852 -2.143149,0.528328 1.749499,-1.345909 -2.206864,-0.04436 2.038232,-0.847245 -2.120185,-0.614028 2.188065,-0.290842 -1.889019,-1.14185 2.188783,0.28538 -1.52912,-1.591856 2.040341,0.842155 -1.065014,-1.933381 1.752852,1.341539 -0.528329,-2.143148 1.345909,1.749498 0.04436,-2.206863 0.847245,2.038232 0.614028,-2.120185 0.290842,2.188065 1.14185,-1.88902 -0.285381,2.188784 1.591857,-1.52912 -0.842155,2.04034 1.93338,-1.065013 -1.341538,1.752852 2.143148,-0.528329 -1.749498,1.345909 2.206863,0.04436 -2.038232,0.847244 2.120185,0.614029 -2.188065,0.290842 z" /><circle
         style="opacity:1;mix-blend-mode:normal;fill:#ffffff;fill-opacity:1;stroke:none;stroke-width:0.65699;stroke-linecap:round;stroke-linejoin:round;stroke-dasharray:none;paint-order:markers fill stroke;filter:url(#filter15216)"
         id="circle15237"
         cx="46.302082"
         cy="67.73333"
         r="3.6223743"
         transform="matrix(0.87361629,0,0,0.87361629,5.8518288,8.5603894)" /></g><g
       id="g15245"
       transform="matrix(0.25658442,0,0,0.25658442,57.325039,155.63077)"><path
         style="opacity:1;fill:#5555ff;fill-opacity:1;stroke:none;stroke-width:0.499999;stroke-linecap:round;stroke-linejoin:round;stroke-dasharray:none;paint-order:markers fill stroke;filter:url(#filter15212)"
         id="path15241"
         d="m 51.593748,69.585413 -2.188783,-0.285381 1.52912,1.591857 -2.040341,-0.842156 1.065014,1.933381 -1.752852,-1.341539 0.528329,2.143149 -1.345909,-1.749499 -0.04436,2.206864 -0.847245,-2.038233 -0.614028,2.120185 -0.290842,-2.188064 -1.14185,1.889019 0.285381,-2.188783 -1.591857,1.52912 0.842156,-2.040341 -1.933381,1.065014 1.341539,-1.752852 -2.143149,0.528328 1.749499,-1.345909 -2.206864,-0.04436 2.038232,-0.847245 -2.120185,-0.614028 2.188065,-0.290842 -1.889019,-1.14185 2.188783,0.28538 -1.52912,-1.591856 2.040341,0.842155 -1.065014,-1.933381 1.752852,1.341539 -0.528329,-2.143148 1.345909,1.749498 0.04436,-2.206863 0.847245,2.038232 0.614028,-2.120185 0.290842,2.188065 1.14185,-1.88902 -0.285381,2.188784 1.591857,-1.52912 -0.842155,2.04034 1.93338,-1.065013 -1.341538,1.752852 2.143148,-0.528329 -1.749498,1.345909 2.206863,0.04436 -2.038232,0.847244 2.120185,0.614029 -2.188065,0.290842 z" /><circle
         style="opacity:1;mix-blend-mode:normal;fill:#ffffff;fill-opacity:1;stroke:none;stroke-width:0.65699;stroke-linecap:round;stroke-linejoin:round;stroke-dasharray:none;paint-order:markers fill stroke;filter:url(#filter15216)"
         id="circle15243"
         cx="46.302082"
         cy="67.73333"
         r="3.6223743"
         transform="matrix(0.87361629,0,0,0.87361629,5.8518288,8.5603894)" /></g><g
       id="g15269"
       transform="matrix(0.16298075,0,0,0.16298075,87.062773,186.64338)"><path
         style="opacity:1;fill:#5555ff;fill-opacity:1;stroke:none;stroke-width:0.499999;stroke-linecap:round;stroke-linejoin:round;stroke-dasharray:none;paint-order:markers fill stroke;filter:url(#filter15212)"
         id="path15265"
         d="m 51.593748,69.585413 -2.188783,-0.285381 1.52912,1.591857 -2.040341,-0.842156 1.065014,1.933381 -1.752852,-1.341539 0.528329,2.143149 -1.345909,-1.749499 -0.04436,2.206864 -0.847245,-2.038233 -0.614028,2.120185 -0.290842,-2.188064 -1.14185,1.889019 0.285381,-2.188783 -1.591857,1.52912 0.842156,-2.040341 -1.933381,1.065014 1.341539,-1.752852 -2.143149,0.528328 1.749499,-1.345909 -2.206864,-0.04436 2.038232,-0.847245 -2.120185,-0.614028 2.188065,-0.290842 -1.889019,-1.14185 2.188783,0.28538 -1.52912,-1.591856 2.040341,0.842155 -1.065014,-1.933381 1.752852,1.341539 -0.528329,-2.143148 1.345909,1.749498 0.04436,-2.206863 0.847245,2.038232 0.614028,-2.120185 0.290842,2.188065 1.14185,-1.88902 -0.285381,2.188784 1.591857,-1.52912 -0.842155,2.04034 1.93338,-1.065013 -1.341538,1.752852 2.143148,-0.528329 -1.749498,1.345909 2.206863,0.04436 -2.038232,0.847244 2.120185,0.614029 -2.188065,0.290842 z" /><circle
         style="opacity:1;mix-blend-mode:normal;fill:#ffffff;fill-opacity:1;stroke:none;stroke-width:0.65699;stroke-linecap:round;stroke-linejoin:round;stroke-dasharray:none;paint-order:markers fill stroke;filter:url(#filter15216)"
         id="circle15267"
         cx="46.302082"
         cy="67.73333"
         r="3.6223743"
         transform="matrix(0.87361629,0,0,0.87361629,5.8518288,8.5603894)" /></g><g
       id="g15275"
       transform="matrix(0.16298075,0,0,0.16298075,23.888138,163.64907)"><path
         style="opacity:1;fill:#5555ff;fill-opacity:1;stroke:none;stroke-width:0.499999;stroke-linecap:round;stroke-linejoin:round;stroke-dasharray:none;paint-order:markers fill stroke;filter:url(#filter15212)"
         id="path15271"
         d="m 51.593748,69.585413 -2.188783,-0.285381 1.52912,1.591857 -2.040341,-0.842156 1.065014,1.933381 -1.752852,-1.341539 0.528329,2.143149 -1.345909,-1.749499 -0.04436,2.206864 -0.847245,-2.038233 -0.614028,2.120185 -0.290842,-2.188064 -1.14185,1.889019 0.285381,-2.188783 -1.591857,1.52912 0.842156,-2.040341 -1.933381,1.065014 1.341539,-1.752852 -2.143149,0.528328 1.749499,-1.345909 -2.206864,-0.04436 2.038232,-0.847245 -2.120185,-0.614028 2.188065,-0.290842 -1.889019,-1.14185 2.188783,0.28538 -1.52912,-1.591856 2.040341,0.842155 -1.065014,-1.933381 1.752852,1.341539 -0.528329,-2.143148 1.345909,1.749498 0.04436,-2.206863 0.847245,2.038232 0.614028,-2.120185 0.290842,2.188065 1.14185,-1.88902 -0.285381,2.188784 1.591857,-1.52912 -0.842155,2.04034 1.93338,-1.065013 -1.341538,1.752852 2.143148,-0.528329 -1.749498,1.345909 2.206863,0.04436 -2.038232,0.847244 2.120185,0.614029 -2.188065,0.290842 z" /><circle
         style="opacity:1;mix-blend-mode:normal;fill:#ffffff;fill-opacity:1;stroke:none;stroke-width:0.65699;stroke-linecap:round;stroke-linejoin:round;stroke-dasharray:none;paint-order:markers fill stroke;filter:url(#filter15216)"
         id="circle15273"
         cx="46.302082"
         cy="67.73333"
         r="3.6223743"
         transform="matrix(0.87361629,0,0,0.87361629,5.8518288,8.5603894)" /></g><g
       id="g15485"
       transform="matrix(0.25658442,0,0,0.25658442,100.46785,24.709819)"><path
         style="opacity:1;fill:#5555ff;fill-opacity:1;stroke:none;stroke-width:0.499999;stroke-linecap:round;stroke-linejoin:round;stroke-dasharray:none;paint-order:markers fill stroke;filter:url(#filter15212)"
         id="path15481"
         d="m 51.593748,69.585413 -2.188783,-0.285381 1.52912,1.591857 -2.040341,-0.842156 1.065014,1.933381 -1.752852,-1.341539 0.528329,2.143149 -1.345909,-1.749499 -0.04436,2.206864 -0.847245,-2.038233 -0.614028,2.120185 -0.290842,-2.188064 -1.14185,1.889019 0.285381,-2.188783 -1.591857,1.52912 0.842156,-2.040341 -1.933381,1.065014 1.341539,-1.752852 -2.143149,0.528328 1.749499,-1.345909 -2.206864,-0.04436 2.038232,-0.847245 -2.120185,-0.614028 2.188065,-0.290842 -1.889019,-1.14185 2.188783,0.28538 -1.52912,-1.591856 2.040341,0.842155 -1.065014,-1.933381 1.752852,1.341539 -0.528329,-2.143148 1.345909,1.749498 0.04436,-2.206863 0.847245,2.038232 0.614028,-2.120185 0.290842,2.188065 1.14185,-1.88902 -0.285381,2.188784 1.591857,-1.52912 -0.842155,2.04034 1.93338,-1.065013 -1.341538,1.752852 2.143148,-0.528329 -1.749498,1.345909 2.206863,0.04436 -2.038232,0.847244 2.120185,0.614029 -2.188065,0.290842 z" /><circle
         style="opacity:1;mix-blend-mode:normal;fill:#ffffff;fill-opacity:1;stroke:none;stroke-width:0.65699;stroke-linecap:round;stroke-linejoin:round;stroke-dasharray:none;paint-order:markers fill stroke;filter:url(#filter15216)"
         id="circle15483"
         cx="46.302082"
         cy="67.73333"
         r="3.6223743"
         transform="matrix(0.87361629,0,0,0.87361629,5.8518288,8.5603894)" /></g><g
       id="g15851"
       transform="matrix(0.07215933,0,0,0.07215933,76.887385,188.25745)"><path
         style="opacity:1;fill:#5555ff;fill-opacity:1;stroke:none;stroke-width:0.499999;stroke-linecap:round;stroke-linejoin:round;stroke-dasharray:none;paint-order:markers fill stroke;filter:url(#filter15212)"
         id="path15847"
         d="m 51.593748,69.585413 -2.188783,-0.285381 1.52912,1.591857 -2.040341,-0.842156 1.065014,1.933381 -1.752852,-1.341539 0.528329,2.143149 -1.345909,-1.749499 -0.04436,2.206864 -0.847245,-2.038233 -0.614028,2.120185 -0.290842,-2.188064 -1.14185,1.889019 0.285381,-2.188783 -1.591857,1.52912 0.842156,-2.040341 -1.933381,1.065014 1.341539,-1.752852 -2.143149,0.528328 1.749499,-1.345909 -2.206864,-0.04436 2.038232,-0.847245 -2.120185,-0.614028 2.188065,-0.290842 -1.889019,-1.14185 2.188783,0.28538 -1.52912,-1.591856 2.040341,0.842155 -1.065014,-1.933381 1.752852,1.341539 -0.528329,-2.143148 1.345909,1.749498 0.04436,-2.206863 0.847245,2.038232 0.614028,-2.120185 0.290842,2.188065 1.14185,-1.88902 -0.285381,2.188784 1.591857,-1.52912 -0.842155,2.04034 1.93338,-1.065013 -1.341538,1.752852 2.143148,-0.528329 -1.749498,1.345909 2.206863,0.04436 -2.038232,0.847244 2.120185,0.614029 -2.188065,0.290842 z" /><circle
         style="opacity:1;mix-blend-mode:normal;fill:#ffffff;fill-opacity:1;stroke:none;stroke-width:0.65699;stroke-linecap:round;stroke-linejoin:round;stroke-dasharray:none;paint-order:markers fill stroke;filter:url(#filter15216)"
         id="circle15849"
         cx="46.302082"
         cy="67.73333"
         r="3.6223743"
         transform="matrix(0.87361629,0,0,0.87361629,5.8518288,8.5603894)" /></g><g
       id="g15857"
       transform="matrix(0.07215933,0,0,0.07215933,91.337803,169.12984)"><path
         style="opacity:1;fill:#5555ff;fill-opacity:1;stroke:none;stroke-width:0.499999;stroke-linecap:round;stroke-linejoin:round;stroke-dasharray:none;paint-order:markers fill stroke;filter:url(#filter15212)"
         id="path15853"
         d="m 51.593748,69.585413 -2.188783,-0.285381 1.52912,1.591857 -2.040341,-0.842156 1.065014,1.933381 -1.752852,-1.341539 0.528329,2.143149 -1.345909,-1.749499 -0.04436,2.206864 -0.847245,-2.038233 -0.614028,2.120185 -0.290842,-2.188064 -1.14185,1.889019 0.285381,-2.188783 -1.591857,1.52912 0.842156,-2.040341 -1.933381,1.065014 1.341539,-1.752852 -2.143149,0.528328 1.749499,-1.345909 -2.206864,-0.04436 2.038232,-0.847245 -2.120185,-0.614028 2.188065,-0.290842 -1.889019,-1.14185 2.188783,0.28538 -1.52912,-1.591856 2.040341,0.842155 -1.065014,-1.933381 1.752852,1.341539 -0.528329,-2.143148 1.345909,1.749498 0.04436,-2.206863 0.847245,2.038232 0.614028,-2.120185 0.290842,2.188065 1.14185,-1.88902 -0.285381,2.188784 1.591857,-1.52912 -0.842155,2.04034 1.93338,-1.065013 -1.341538,1.752852 2.143148,-0.528329 -1.749498,1.345909 2.206863,0.04436 -2.038232,0.847244 2.120185,0.614029 -2.188065,0.290842 z" /><circle
         style="opacity:1;mix-blend-mode:normal;fill:#ffffff;fill-opacity:1;stroke:none;stroke-width:0.65699;stroke-linecap:round;stroke-linejoin:round;stroke-dasharray:none;paint-order:markers fill stroke;filter:url(#filter15216)"
         id="circle15855"
         cx="46.302082"
         cy="67.73333"
         r="3.6223743"
         transform="matrix(0.87361629,0,0,0.87361629,5.8518288,8.5603894)" /></g><g
       id="g15863"
       transform="matrix(0.07215933,0,0,0.07215933,44.697539,172.60165)"><path
         style="opacity:1;fill:#5555ff;fill-opacity:1;stroke:none;stroke-width:0.499999;stroke-linecap:round;stroke-linejoin:round;stroke-dasharray:none;paint-order:markers fill stroke;filter:url(#filter15212)"
         id="path15859"
         d="m 51.593748,69.585413 -2.188783,-0.285381 1.52912,1.591857 -2.040341,-0.842156 1.065014,1.933381 -1.752852,-1.341539 0.528329,2.143149 -1.345909,-1.749499 -0.04436,2.206864 -0.847245,-2.038233 -0.614028,2.120185 -0.290842,-2.188064 -1.14185,1.889019 0.285381,-2.188783 -1.591857,1.52912 0.842156,-2.040341 -1.933381,1.065014 1.341539,-1.752852 -2.143149,0.528328 1.749499,-1.345909 -2.206864,-0.04436 2.038232,-0.847245 -2.120185,-0.614028 2.188065,-0.290842 -1.889019,-1.14185 2.188783,0.28538 -1.52912,-1.591856 2.040341,0.842155 -1.065014,-1.933381 1.752852,1.341539 -0.528329,-2.143148 1.345909,1.749498 0.04436,-2.206863 0.847245,2.038232 0.614028,-2.120185 0.290842,2.188065 1.14185,-1.88902 -0.285381,2.188784 1.591857,-1.52912 -0.842155,2.04034 1.93338,-1.065013 -1.341538,1.752852 2.143148,-0.528329 -1.749498,1.345909 2.206863,0.04436 -2.038232,0.847244 2.120185,0.614029 -2.188065,0.290842 z" /><circle
         style="opacity:1;mix-blend-mode:normal;fill:#ffffff;fill-opacity:1;stroke:none;stroke-width:0.65699;stroke-linecap:round;stroke-linejoin:round;stroke-dasharray:none;paint-order:markers fill stroke;filter:url(#filter15216)"
         id="circle15861"
         cx="46.302082"
         cy="67.73333"
         r="3.6223743"
         transform="matrix(0.87361629,0,0,0.87361629,5.8518288,8.5603894)" /></g><g
       id="g15869"
       transform="matrix(0.07215933,0,0,0.07215933,138.2593,112.82405)"><path
         style="opacity:1;fill:#5555ff;fill-opacity:1;stroke:none;stroke-width:0.499999;stroke-linecap:round;stroke-linejoin:round;stroke-dasharray:none;paint-order:markers fill stroke;filter:url(#filter15212)"
         id="path15865"
         d="m 51.593748,69.585413 -2.188783,-0.285381 1.52912,1.591857 -2.040341,-0.842156 1.065014,1.933381 -1.752852,-1.341539 0.528329,2.143149 -1.345909,-1.749499 -0.04436,2.206864 -0.847245,-2.038233 -0.614028,2.120185 -0.290842,-2.188064 -1.14185,1.889019 0.285381,-2.188783 -1.591857,1.52912 0.842156,-2.040341 -1.933381,1.065014 1.341539,-1.752852 -2.143149,0.528328 1.749499,-1.345909 -2.206864,-0.04436 2.038232,-0.847245 -2.120185,-0.614028 2.188065,-0.290842 -1.889019,-1.14185 2.188783,0.28538 -1.52912,-1.591856 2.040341,0.842155 -1.065014,-1.933381 1.752852,1.341539 -0.528329,-2.143148 1.345909,1.749498 0.04436,-2.206863 0.847245,2.038232 0.614028,-2.120185 0.290842,2.188065 1.14185,-1.88902 -0.285381,2.188784 1.591857,-1.52912 -0.842155,2.04034 1.93338,-1.065013 -1.341538,1.752852 2.143148,-0.528329 -1.749498,1.345909 2.206863,0.04436 -2.038232,0.847244 2.120185,0.614029 -2.188065,0.290842 z" /><circle
         style="opacity:1;mix-blend-mode:normal;fill:#ffffff;fill-opacity:1;stroke:none;stroke-width:0.65699;stroke-linecap:round;stroke-linejoin:round;stroke-dasharray:none;paint-order:markers fill stroke;filter:url(#filter15216)"
         id="circle15867"
         cx="46.302082"
         cy="67.73333"
         r="3.6223743"
         transform="matrix(0.87361629,0,0,0.87361629,5.8518288,8.5603894)" /></g><g
       id="g16307"
       transform="matrix(0.45328122,0,0,0.45328122,111.40254,136.04359)"><path
         style="opacity:1;fill:#5555ff;fill-opacity:1;stroke:none;stroke-width:0.499999;stroke-linecap:round;stroke-linejoin:round;stroke-dasharray:none;paint-order:markers fill stroke;filter:url(#filter15212)"
         id="path16303"
         d="m 51.593748,69.585413 -2.188783,-0.285381 1.52912,1.591857 -2.040341,-0.842156 1.065014,1.933381 -1.752852,-1.341539 0.528329,2.143149 -1.345909,-1.749499 -0.04436,2.206864 -0.847245,-2.038233 -0.614028,2.120185 -0.290842,-2.188064 -1.14185,1.889019 0.285381,-2.188783 -1.591857,1.52912 0.842156,-2.040341 -1.933381,1.065014 1.341539,-1.752852 -2.143149,0.528328 1.749499,-1.345909 -2.206864,-0.04436 2.038232,-0.847245 -2.120185,-0.614028 2.188065,-0.290842 -1.889019,-1.14185 2.188783,0.28538 -1.52912,-1.591856 2.040341,0.842155 -1.065014,-1.933381 1.752852,1.341539 -0.528329,-2.143148 1.345909,1.749498 0.04436,-2.206863 0.847245,2.038232 0.614028,-2.120185 0.290842,2.188065 1.14185,-1.88902 -0.285381,2.188784 1.591857,-1.52912 -0.842155,2.04034 1.93338,-1.065013 -1.341538,1.752852 2.143148,-0.528329 -1.749498,1.345909 2.206863,0.04436 -2.038232,0.847244 2.120185,0.614029 -2.188065,0.290842 z" /><circle
         style="opacity:1;mix-blend-mode:normal;fill:#ffffff;fill-opacity:1;stroke:none;stroke-width:0.65699;stroke-linecap:round;stroke-linejoin:round;stroke-dasharray:none;paint-order:markers fill stroke;filter:url(#filter15216)"
         id="circle16305"
         cx="46.302082"
         cy="67.73333"
         r="3.6223743"
         transform="matrix(0.87361629,0,0,0.87361629,5.8518288,8.5603894)" /></g></g><g
     id="layer3"
     style="display:inline"
     transform="translate(-23,-34.50001)"><path
       id="path2789"
       style="display:inline;fill:#64a9fe;stroke-width:0.332389;stroke-linecap:round;stroke-linejoin:round;paint-order:markers fill stroke"
       d="M 36.000009,-164.99998 H 136.00001 v 71.252502 l -100.000001,19.84261 z"
       transform="translate(3.9095603e-7,212.50001)" /><g
       id="g2025"
       clip-path="url(#clipPath15231)"
       transform="rotate(14.999683,-627.81378,-577.11455)"
       style="opacity:1"><path
         style="fill:#fefefe;stroke-width:0.0517578"
         d="m 216.88929,-93.000525 -0.42867,-1.599818 1.59981,-0.428669 1.59982,-0.428669 -0.42867,-1.599814 -0.42867,-1.599815 4.79945,-1.286007 4.79944,-1.286003 -0.42867,-1.59982 -0.42867,-1.59981 1.59982,-0.42867 1.59981,-0.42867 -0.21433,-0.7999 -0.21434,-0.79992 0.7999,-0.21433 0.79992,-0.21434 -0.21434,-0.7999 -0.21433,-0.79991 1.59981,-0.42867 1.59982,-0.42867 -0.42867,-1.59981 -0.42867,-1.59982 -0.79991,0.21434 -0.79991,0.21433 -0.21433,-0.7999 -0.21434,-0.79991 -0.79991,0.21433 -0.7999,0.21434 -0.21433,-0.79991 -0.21434,-0.7999 -0.79991,0.21434 -0.7999,0.21433 -0.21434,-0.79991 -0.21433,-0.7999 0.7999,-0.21434 0.79991,-0.21433 -0.21433,-0.79992 -0.21433,-0.7999 1.59981,-0.42867 1.59981,-0.42867 0.21434,0.79991 0.21433,0.79991 0.79991,-0.21433 0.79991,-0.21434 1.286,4.79943 1.28601,4.79945 -0.79991,0.21433 -0.7999,0.21434 0.21433,0.79991 0.21433,0.7999 -0.79991,0.21434 -0.7999,0.21433 0.85734,3.19963 0.85734,3.199629 -1.59982,0.428669 -1.59981,0.428669 -0.42867,-1.599817 -0.42867,-1.59981 -1.59982,0.42867 -1.59981,0.42867 0.643,2.399723 0.64301,2.39972 -0.79992,0.214335 -0.7999,0.214334 0.21434,0.799907 0.21433,0.799907 -5.59935,1.500343 -5.59935,1.500341 z m 3.82724,-11.313565 -0.42867,-1.59982 1.59982,-0.42867 1.59981,-0.42866 0.42867,1.59981 0.42867,1.59981 -1.59981,0.42867 -1.59982,0.42867 z"
         id="path982" /><path
         id="path980"
         style="fill:#cdcefe;stroke-width:0.0517578"
         d="m 250.96763,-144.9987 -0.79995,0.21445 -0.79996,0.21446 0.4284,1.5999 0.42892,1.59939 0.79995,-0.21394 0.79995,-0.21446 -0.42892,-1.5999 z m 0.85731,3.1998 0.4284,1.5999 0.42891,1.59939 0.79995,-0.21394 0.79944,-0.21446 -0.4284,-1.5999 -0.42892,-1.5999 -0.79995,0.21445 z m 2.4567,2.77089 0.42891,1.5999 0.4284,1.59991 0.79995,-0.21446 0.79995,-0.21446 -0.4284,-1.5999 -0.42891,-1.5999 -0.79995,0.21445 z m 2.45721,2.77089 0.64337,2.39985 0.64286,2.39986 0.79995,-0.21446 0.79995,-0.21446 -0.64337,-2.39985 -0.64286,-2.39934 -0.79995,0.21394 z m 1.28623,4.79971 -0.79995,0.21394 -0.79996,0.21446 0.42892,1.5999 0.4284,1.5999 0.79995,-0.21446 0.79995,-0.21445 -0.42892,-1.59991 z m -0.74259,3.6282 -0.79995,0.21446 -0.79996,0.21394 0.42892,1.5999 0.4284,1.5999 0.79995,-0.21445 0.79995,-0.21446 -0.4284,-1.59939 z m -0.74259,3.6282 -0.79995,0.21446 -0.79996,0.21394 0.42892,1.5999 0.42891,1.59991 0.79944,-0.21446 0.79995,-0.21394 -0.4284,-1.5999 z m -1.59991,0.4284 -0.42839,-1.59938 -0.42892,-1.59991 -0.79943,0.21446 -0.79995,0.21394 0.42839,1.5999 0.42892,1.59991 0.79995,-0.21446 z m -2.45669,-2.77089 -0.42892,-1.59939 -0.4284,-1.5999 -0.79995,0.21394 -0.79995,0.21446 0.4284,1.5999 0.42891,1.5999 0.79996,-0.21445 z m -2.45722,-2.77089 -0.64337,-2.39985 -0.64285,-2.39934 -0.79996,0.21394 -0.79995,0.21446 0.64337,2.39985 0.64286,2.39985 0.79995,-0.21445 z m -1.28622,-4.79919 0.79995,-0.21446 0.79995,-0.21445 -0.42892,-1.59991 -0.42839,-1.59938 -0.79996,0.21394 -0.79995,0.21446 0.42892,1.5999 z m 0.74259,-3.6282 0.79995,-0.21446 0.79995,-0.21446 -0.42892,-1.5999 -0.42839,-1.5999 -0.79995,0.21446 -0.79996,0.21445 0.4284,1.59991 z m 4.48551,3.94188 -0.79995,0.21445 -0.79995,0.21446 0.21446,0.79943 0.21445,0.79996 0.79995,-0.21394 0.79995,-0.21446 -0.21445,-0.79995 z m 34.71416,33.56539 -0.79995,0.21446 -0.79995,0.213936 0.4284,1.599903 0.42891,1.599902 0.79995,-0.214457 0.79995,-0.21394 -0.42891,-1.599903 z m 3.6282,0.742589 -0.79995,0.213941 -0.79995,0.214457 0.21446,0.799951 0.21445,0.799951 0.79996,-0.214457 0.79943,-0.214457 -0.21394,-0.799435 z m -6.828,0.114722 -0.79996,0.214457 -0.79995,0.21394 0.42892,1.599903 0.4284,1.599902 0.79995,-0.214457 0.79995,-0.21394 -0.4284,-1.599903 z m -3.19981,0.857312 -0.79943,0.214457 -0.79995,0.213941 0.42839,1.599902 0.42892,1.599902 0.79995,-0.214457 0.79943,-0.21394 -0.42839,-1.599903 z m -3.19929,0.857312 -0.79995,0.214457 -0.79995,0.214457 0.4284,1.599386 0.42891,1.599902 0.79995,-0.214457 0.79996,-0.21394 -0.42892,-1.599903 z m -3.1998,0.857312 -0.79995,0.214457 -0.79995,0.214457 0.42891,1.599386 0.4284,1.599902 0.79995,-0.214457 0.79995,-0.21394 -0.4284,-1.599903 z m 17.28421,0.51263 -0.79995,0.214457 -0.79995,0.214458 0.21446,0.799951 0.21446,0.799951 -3.19981,0.857312 -3.1998,0.857312 -0.21394,-0.799951 -0.21446,-0.799951 -3.1998,0.857312 -3.19929,0.857312 0.21394,0.799951 0.21445,0.799951 -3.1998,0.857312 -3.19929,0.857312 -0.21446,-0.799951 -0.21445,-0.799951 -3.19929,0.857312 -3.1998,0.857312 0.21445,0.799951 0.21394,0.799951 -3.19929,0.857312 -3.1998,0.857312 -0.21446,-0.799951 -0.21394,-0.799951 -3.1998,0.857312 -3.19981,0.857312 0.21446,0.799951 0.21446,0.799951 -3.19981,0.857312 -3.1998,0.857312 -0.21394,-0.799951 -0.21446,-0.799435 -3.1998,0.857312 -3.19929,0.857312 0.21394,0.799952 0.21446,0.799434 -3.19981,0.857312 -3.19929,0.857829 -0.21445,-0.799951 -0.21446,-0.799952 -3.19929,0.857312 -3.1998,0.857313 0.21445,0.799951 0.21394,0.799951 -3.19928,0.857312 -3.19981,0.857312 -0.21446,-0.799951 -0.21394,-0.799951 -3.1998,0.857312 -3.19981,0.857312 0.21446,0.799951 0.21446,0.799951 -3.19981,0.857312 -3.19928,0.857312 -0.21446,-0.799951 -0.21446,-0.799951 -0.79995,0.214457 -0.79995,0.214457 2.57194,9.598897 2.57193,9.598898 30.05605,-8.053772 h 46.02251 v -12.331547 l 10.31152,-2.763139 -2.57194,-9.598898 z m -20.48402,0.344682 -0.79943,0.214457 -0.79995,0.214457 0.4284,1.599386 0.42891,1.599902 0.79995,-0.21394 0.79944,-0.214457 -0.4284,-1.599903 z m -3.19928,0.857312 -0.79996,0.214457 -0.79995,0.214457 0.4284,1.599903 0.42892,1.599385 0.79995,-0.21394 0.79995,-0.214457 -0.42892,-1.599903 z m -3.19981,0.857312 -0.79995,0.214457 -0.79995,0.214457 0.42891,1.599903 0.4284,1.599385 0.79995,-0.21394 0.79995,-0.214457 -0.42839,-1.599903 z m -3.1998,0.857312 -0.79944,0.214457 -0.79995,0.214457 0.4284,1.599903 0.42891,1.599385 0.79995,-0.21394 0.79996,-0.214457 -0.42892,-1.599903 z m -3.19929,0.857312 -0.79995,0.214457 -0.79995,0.214457 0.42839,1.599903 0.42892,1.599385 0.79995,-0.21394 0.79995,-0.214457 -0.42891,-1.599903 z m -3.19981,0.857312 -0.79995,0.214457 -0.79995,0.214457 0.42892,1.599903 0.42839,1.599902 0.79995,-0.214457 0.79996,-0.214457 -0.4284,-1.599903 z m -3.1998,0.857312 -0.79944,0.214457 -0.79995,0.214457 0.4284,1.599903 0.42892,1.599902 0.79995,-0.214457 0.79995,-0.214457 -0.42892,-1.599903 z m -3.19929,0.857312 -0.79995,0.214457 -0.79995,0.214457 0.42891,1.599903 0.4284,1.599902 0.79995,-0.214457 0.79995,-0.214457 -0.42891,-1.599903 z m -3.1998,0.857829 -0.79995,0.21394 -0.79996,0.214457 0.42892,1.599903 0.4284,1.599902 0.79995,-0.214457 0.79995,-0.214457 -0.4284,-1.599903 z m -3.19981,0.857312 -0.79943,0.21394 -0.79995,0.214457 0.42839,1.599903 0.42892,1.599902 0.79995,-0.214457 0.79995,-0.214457 -0.42891,-1.599903 z m -3.19929,0.857312 -0.79995,0.21394 -0.79995,0.214457 0.42892,1.599903 0.42839,1.599902 0.79995,-0.214457 0.79996,-0.214457 -0.42892,-1.599903 z m -3.1998,0.857312 -0.79995,0.21394 -0.79995,0.214457 0.42891,1.599903 0.4284,1.599902 0.79995,-0.214457 0.79995,-0.214457 -0.4284,-1.599903 z m -3.19929,0.857312 -0.79995,0.21394 -0.79995,0.214457 0.4284,1.599903 0.42891,1.599902 0.79995,-0.214457 0.79995,-0.214457 -0.42891,-1.599386 z m -3.1998,0.857312 -0.79995,0.214457 -0.79996,0.21394 0.42892,1.599903 0.4284,1.599902 0.79995,-0.214457 0.79995,-0.214457 -0.42892,-1.599386 z m -3.19981,0.857312 -0.79995,0.214457 -0.79995,0.21394 0.42891,1.599903 0.4284,1.599902 0.79995,-0.214457 0.79995,-0.214457 -0.42839,-1.599386 z m -3.19929,0.857312 -0.79995,0.214457 -0.79995,0.21394 0.4284,1.599903 0.42891,1.599902 0.79995,-0.214457 0.79996,-0.21394 -0.42892,-1.599903 z m -3.1998,0.857312 -0.79995,0.214457 -0.79995,0.21394 0.42891,1.599903 0.4284,1.599902 0.79995,-0.214457 0.79995,-0.21394 -0.42891,-1.599903 z m -3.19981,0.857312 -0.79995,0.214457 -0.79995,0.213941 0.42892,1.599902 0.42839,1.599902 0.79996,-0.214457 0.79995,-0.21394 -0.4284,-1.599903 z m -3.19928,0.857312 -0.79995,0.214457 -0.79996,0.214457 0.4284,1.599386 0.42892,1.599902 0.79995,-0.214457 0.79995,-0.21394 -0.42892,-1.599903 z m -3.19981,0.857312 -0.79995,0.214457 -0.79995,0.214457 0.42891,1.599386 0.4284,1.599902 0.79995,-0.214457 0.79995,-0.21394 -0.42891,-1.599903 z m -3.1998,0.857312 -0.79995,0.214457 -0.79996,0.214457 0.42892,1.599386 0.4284,1.599902 0.79995,-0.21394 0.79995,-0.214457 -0.4284,-1.599903 z" /><path
         style="fill:#64a9fe;stroke-width:0.0517578"
         d="m 183.80594,-101.28263 -13.71741,-51.19406 51.19407,-13.71741 51.19406,-13.71741 10.71672,39.99537 10.71673,39.995358 -0.79991,0.214333 -0.79991,0.214336 -0.21433,-0.799907 -0.21434,-0.79991 -0.7999,0.21434 -0.79991,0.21433 -0.21434,-0.79991 -0.21433,-0.7999 -41.59518,11.145392 -41.59517,11.145392 0.21433,0.799908 0.21434,0.799907 -0.79992,0.214336 -0.7999,0.214333 0.21434,0.799907 0.21433,0.799908 -0.79991,0.214335 -0.7999,0.214334 3.00068,11.198701 3.00068,11.198702 -6.39926,1.714676 -6.39926,1.714676 z m 37.14032,10.624396 -0.42867,-1.599814 1.59981,-0.42867 1.59982,-0.428669 0.42867,1.599815 0.42867,1.599815 1.59981,-0.428669 1.59981,-0.428669 -0.42866,-1.599815 -0.42867,-1.599815 0.7999,-0.214333 0.79991,-0.214336 -0.21433,-0.799907 -0.21434,-0.799907 0.7999,-0.214334 0.79992,-0.214335 -0.21434,-0.799907 -0.21433,-0.799911 4.79944,-1.286007 4.79945,-1.286008 -0.42867,-1.59981 -0.42867,-1.59982 -1.59982,0.42867 -1.59981,0.42867 -0.42867,-1.59982 -0.42867,-1.59981 0.7999,-0.21433 0.79991,-0.21434 -0.21433,-0.7999 -0.21433,-0.79991 0.7999,-0.21434 0.79991,-0.21433 -1.28601,-4.79945 -1.286,-4.79943 -0.79991,0.21434 -0.79991,0.21433 -0.21433,-0.79991 -0.21434,-0.79991 -1.59981,0.42867 -1.59981,0.42867 0.21433,0.7999 0.21433,0.79992 -0.79991,0.21433 -0.7999,0.21434 0.21433,0.7999 0.21434,0.79991 -1.59982,0.42867 -1.59981,0.42867 -0.21434,-0.79991 -0.21433,-0.79991 -0.79991,0.21434 -0.7999,0.21433 -0.21434,-0.79991 -0.21433,-0.7999 -2.39973,0.643 -2.39972,0.64301 0.21434,0.7999 0.21433,0.79991 -0.79991,0.21434 -0.7999,0.21433 0.21433,0.7999 0.21434,0.79991 -0.79992,0.21434 -0.7999,0.21433 0.643,2.39972 0.64301,2.39972 0.7999,-0.21434 0.79991,-0.21433 0.21434,0.79991 0.21433,0.7999 0.7999,-0.21433 0.79991,-0.21434 0.42867,1.59982 0.42867,1.59981 -1.59981,0.42867 -1.59982,0.42867 0.21434,0.79991 0.21433,0.79991 -0.79991,0.21433 -0.7999,0.214334 0.21433,0.799913 0.21434,0.799902 -0.79992,0.214336 -0.7999,0.214333 1.28601,4.799447 1.28601,4.799444 1.59981,-0.428669 1.59982,-0.428669 z m 36.02247,-31.942976 -0.42867,-1.59981 0.79992,-0.21434 0.7999,-0.21433 -0.42867,-1.59982 -0.42867,-1.59981 0.79991,-0.21434 0.7999,-0.21433 -0.42866,-1.59982 -0.42867,-1.59981 0.79991,-0.21434 0.7999,-0.21433 -0.643,-2.39973 -0.64301,-2.39971 -0.7999,0.21433 -0.79991,0.21433 -0.42867,-1.59981 -0.42867,-1.59981 -0.7999,0.21433 -0.79991,0.21433 -0.42867,-1.59981 -0.42867,-1.59981 -0.7999,0.21433 -0.79992,0.21433 -0.42866,-1.59981 -0.42867,-1.59982 -0.79991,0.21434 -0.79991,0.21433 0.42867,1.59982 0.42867,1.59981 -0.7999,0.21434 -0.79992,0.21433 0.42867,1.59982 0.42867,1.59981 -0.7999,0.21433 -0.79991,0.21434 0.42867,1.59982 0.42867,1.59981 -0.79991,0.21433 -0.79991,0.21434 0.643,2.39972 0.64301,2.39972 0.79991,-0.21433 0.7999,-0.21434 0.42867,1.59982 0.42867,1.59981 0.79991,-0.21433 0.79991,-0.21434 0.42867,1.59982 0.42866,1.59981 0.79992,-0.21433 0.7999,-0.21434 0.42867,1.59982 0.42866,1.5998 0.79992,-0.21433 0.7999,-0.21434 z m -35.32616,-10.25316 -0.21433,-0.79991 0.7999,-0.21433 0.79991,-0.21434 -0.643,-2.39972 -0.64301,-2.39972 0.79991,-0.21433 0.79991,-0.21434 -0.21434,-0.79991 -0.21433,-0.7999 0.7999,-0.21434 0.79991,-0.21433 -0.21433,-0.79991 -0.21434,-0.79991 1.59982,-0.42867 1.59981,-0.42867 -0.21433,-0.79991 -0.21434,-0.7999 -1.59981,0.42867 -1.59981,0.42867 -0.42867,-1.59982 -0.42867,-1.59981 -0.79991,0.21433 -0.79991,0.21434 -0.21433,-0.79991 -0.21434,-0.79991 -0.79991,0.21434 -0.7999,0.21433 -0.21434,-0.79991 -0.21433,-0.7999 -0.79991,0.21433 -0.7999,0.21434 0.42866,1.59981 0.42867,1.59982 -1.59981,0.42867 -1.59982,0.42866 -0.21433,-0.79991 -0.21434,-0.7999 -3.19962,0.85734 -3.19963,0.85734 0.21433,0.7999 0.21434,0.79991 -0.79992,0.21434 -0.7999,0.21433 0.21433,0.7999 0.21434,0.79991 -2.39973,0.64301 -2.39971,0.643 0.21433,0.7999 0.21433,0.79992 -0.79991,0.21433 -0.7999,0.21433 0.21433,0.79991 0.21434,0.79991 3.19963,-0.85734 3.19963,-0.85734 0.21433,0.79991 0.21434,0.79991 0.7999,-0.21434 0.79991,-0.21433 0.21433,0.7999 0.21434,0.79991 0.7999,-0.21433 0.79992,-0.21434 0.42866,1.59982 0.42867,1.59981 -1.59981,0.42867 -1.59982,0.42867 0.42867,1.59982 0.42867,1.59981 5.59935,-1.50034 5.59935,-1.50034 z"
         id="path978" /><path
         style="fill:#dba11e;stroke-width:0.0517578"
         d="m 216.03195,-96.200157 -0.42867,-1.599815 0.7999,-0.214333 0.79992,-0.214336 -0.21434,-0.799902 -0.21433,-0.799913 0.7999,-0.214334 0.79991,-0.21433 -0.21433,-0.79991 -0.21434,-0.79991 3.19963,-0.85734 3.19963,-0.85734 -0.42867,-1.59981 -0.42867,-1.59981 -2.39972,0.643 -2.39972,0.643 -0.21433,-0.7999 -0.21434,-0.79991 -0.79991,0.21433 -0.7999,0.21434 -0.64301,-2.39972 -0.643,-2.39972 0.7999,-0.21433 0.79992,-0.21434 -0.21434,-0.79991 -0.21433,-0.7999 0.7999,-0.21433 0.79991,-0.21434 -0.21433,-0.79991 -0.21434,-0.7999 2.39972,-0.64301 2.39973,-0.643 0.21433,0.7999 0.21434,0.79991 0.7999,-0.21433 0.79991,-0.21434 0.21433,0.79991 0.21434,0.79991 2.39972,-0.643 2.39972,-0.64301 0.21434,0.7999 0.21433,0.79991 0.7999,-0.21434 0.79991,-0.21433 0.64301,2.39972 0.643,2.39972 -0.79991,0.21434 -0.7999,0.21433 0.21433,0.79991 0.21434,0.7999 -0.79992,0.21434 -0.7999,0.21433 0.21434,0.79992 0.21433,0.7999 -1.59981,0.42867 -1.59982,0.42867 0.42867,1.59981 0.42867,1.59982 -4.79944,1.286003 -4.79945,1.286007 0.42867,1.599815 0.42867,1.599814 -1.59982,0.428669 -1.59981,0.428669 z m 13.42613,-13.885583 -0.42867,-1.59981 -0.79991,0.21434 -0.7999,0.21433 0.42867,1.59981 0.42867,1.59982 0.7999,-0.21434 0.79991,-0.21433 z m -19.22855,-20.56785 -0.42867,-1.59982 1.59982,-0.42867 1.59981,-0.42867 0.42867,1.59982 0.42867,1.59981 -1.59981,0.42867 -1.59982,0.42867 z m 12.04065,-12.65701 -0.21433,-0.7999 2.39972,-0.643 2.39972,-0.64301 0.21434,0.7999 0.21433,0.79991 -2.39972,0.64301 -2.39972,0.643 z"
         id="path976" /><path
         style="fill:#7dca06;stroke-width:0.0517578"
         d="m 251.84009,-128.94304 -0.21433,-0.79991 0.79991,-0.21433 0.7999,-0.21433 -0.21433,-0.79992 -0.21434,-0.7999 -1.59981,0.42867 -1.59982,0.42867 -0.42866,-1.59982 -0.42867,-1.59981 0.79991,-0.21434 0.7999,-0.21433 -0.42867,-1.59981 -0.42867,-1.59982 0.79992,-0.21433 0.7999,-0.21434 -0.42867,-1.59981 -0.42867,-1.59982 0.79991,-0.21433 0.7999,-0.21434 0.42867,1.59982 0.42867,1.59981 0.79991,-0.21433 0.79991,-0.21434 0.21433,0.79991 0.21434,0.79991 -0.79991,0.21433 -0.79991,0.21434 0.21433,0.7999 0.21434,0.79991 1.59982,-0.42867 1.59981,-0.42867 0.21433,0.79991 0.21434,0.79991 -1.59982,0.42867 -1.59981,0.42867 -0.21434,-0.79991 -0.21433,-0.79991 -0.7999,0.21434 -0.79991,0.21433 0.42866,1.59982 0.42867,1.59981 0.79992,-0.21433 0.7999,-0.21434 0.21433,0.7999 0.21434,0.79992 -0.7999,0.21433 -0.79992,0.21434 0.21434,0.7999 0.21433,0.79991 -0.7999,0.21433 -0.79991,0.21434 z"
         id="path974" /><path
         style="fill:#006b96;stroke-width:0.0517578"
         d="m 207.32118,-64.716617 -3.00068,-11.198701 0.7999,-0.214334 0.79991,-0.214335 -0.21433,-0.799908 -0.21434,-0.799907 0.7999,-0.214333 0.79992,-0.214336 -0.21434,-0.799907 -0.21433,-0.799908 41.59517,-11.145392 41.59518,-11.145392 0.21433,0.7999 0.21434,0.79991 0.79991,-0.21433 0.7999,-0.21434 0.21434,0.79991 0.21433,0.799907 0.79991,-0.214336 0.79991,-0.214333 3.00068,11.198701 3.00068,11.198702 -0.7999,0.214333 -0.79991,0.214336 -2.57202,-9.598887 -2.57201,-9.598887 -0.7999,0.214333 -0.79991,0.214336 0.21433,0.799908 0.21433,0.799907 -3.19963,0.857338 -3.19962,0.857338 -0.21434,-0.799907 -0.21433,-0.799908 -3.19963,0.857338 -3.19963,0.857339 0.21433,0.799907 0.21434,0.799907 -3.19963,0.857338 -3.19963,0.857338 -0.21434,-0.799907 -0.21433,-0.799907 -3.19963,0.857338 -3.19963,0.857338 0.21434,0.799907 0.21433,0.799908 -3.19963,0.857338 -3.19963,0.857338 -0.21433,-0.799908 -0.21434,-0.799907 -3.19963,0.857338 -3.19963,0.857338 0.21434,0.799908 0.21433,0.799907 -3.19963,0.857338 -3.19963,0.857338 -0.21433,-0.799907 -0.21434,-0.799908 -3.19961,0.857336 -3.19963,0.857338 0.21433,0.799907 0.21433,0.799908 -3.19962,0.857338 -3.19963,0.857338 -0.21434,-0.799908 -0.21433,-0.799907 -3.19963,0.857338 -3.19963,0.857338 0.21433,0.799908 0.21434,0.799907 -3.19963,0.857338 -3.19963,0.857338 -0.21434,-0.799907 -0.21433,-0.799907 -3.19963,0.857338 -3.19963,0.857338 0.21434,0.799907 0.21433,0.799907 -3.19963,0.857338 -3.19963,0.857338 -0.21433,-0.799907 -0.21434,-0.799907 -0.79991,0.214336 -0.7999,0.214333 2.57201,9.598887 2.57202,9.598887 -0.79992,0.214336 -0.7999,0.214333 z m 1.79876,-12.484708 -0.42867,-1.599815 -0.79991,0.214336 -0.7999,0.214333 0.42866,1.599815 0.42867,1.599814 0.79991,-0.214333 0.79991,-0.214336 z m 3.19963,-0.857339 -0.42867,-1.599814 -0.79991,0.214336 -0.7999,0.214333 0.42866,1.599814 0.42867,1.599815 0.79991,-0.214333 0.79991,-0.214336 z m 3.19963,-0.857338 -0.42867,-1.599814 -0.79991,0.214335 -0.79991,0.214334 0.42867,1.599814 0.42867,1.599815 0.7999,-0.214333 0.79992,-0.214336 z m 3.19963,-0.857338 -0.42867,-1.599814 -0.79991,0.214335 -0.79991,0.214334 0.42867,1.599814 0.42867,1.599815 0.7999,-0.214333 0.79992,-0.214336 z m 3.19963,-0.857338 -0.42867,-1.599814 -0.79991,0.214335 -0.79991,0.214334 0.42867,1.599814 0.42867,1.599815 0.7999,-0.214333 0.79992,-0.214336 z m 3.19963,-0.857338 -0.42867,-1.599815 -0.79992,0.214336 -0.7999,0.214333 0.42867,1.599815 0.42867,1.599815 0.7999,-0.214333 0.79992,-0.214336 z m 3.19963,-0.857338 -0.42867,-1.599815 -0.79992,0.214336 -0.7999,0.214333 0.42867,1.599815 0.42867,1.599815 0.7999,-0.214334 0.79991,-0.214335 z m 3.19962,-0.857338 -0.42866,-1.599815 -0.79992,0.214336 -0.7999,0.214333 0.42867,1.599815 0.42867,1.599815 0.7999,-0.214334 0.79991,-0.214335 z m 3.19963,-0.857338 -0.42867,-1.599815 -0.79991,0.214336 -0.7999,0.214333 0.42867,1.599815 0.42867,1.599815 0.7999,-0.214334 0.79991,-0.214336 z m 3.19963,-0.857338 -0.42867,-1.599815 -0.79991,0.214336 -0.7999,0.214333 0.42867,1.599815 0.42867,1.599814 0.7999,-0.214333 0.79991,-0.214336 z m 3.19963,-0.857338 -0.42867,-1.599815 -0.79991,0.214336 -0.7999,0.214333 0.42867,1.599815 0.42867,1.599814 0.7999,-0.214333 0.79991,-0.214336 z m 3.19962,-0.857336 -0.42867,-1.599815 -0.7999,0.214334 -0.7999,0.214333 0.42867,1.599815 0.42867,1.599814 0.7999,-0.214333 0.7999,-0.214333 z m 3.19963,-0.857338 -0.42867,-1.599815 -0.7999,0.214334 -0.79991,0.214335 0.42867,1.599815 0.42867,1.599815 0.79991,-0.214336 0.7999,-0.214333 z m 3.19963,-0.857338 -0.42867,-1.599815 -0.7999,0.214334 -0.79991,0.214335 0.42867,1.599815 0.42867,1.599815 0.79991,-0.214336 0.7999,-0.214333 z m 3.19963,-0.857338 -0.42867,-1.599815 -0.7999,0.214333 -0.79991,0.214336 0.42867,1.599815 0.42866,1.599815 0.79992,-0.214336 0.7999,-0.214333 z m 3.19963,-0.857338 -0.42867,-1.599815 -0.7999,0.214333 -0.79991,0.214336 0.42866,1.599815 0.42867,1.599814 0.79992,-0.214335 0.7999,-0.214334 z m 3.19963,-0.857338 -0.42867,-1.599815 -0.7999,0.214333 -0.79992,0.214336 0.42867,1.599815 0.42867,1.599814 0.79992,-0.214335 0.7999,-0.214334 z m 3.19963,-0.857338 -0.42867,-1.599815 -0.7999,0.214333 -0.79992,0.214336 0.42867,1.599815 0.42867,1.599814 0.79991,-0.214336 0.79991,-0.214333 z m 3.19963,-0.857338 -0.42867,-1.599815 -0.7999,0.214333 -0.79992,0.214336 0.42867,1.599815 0.42867,1.599814 0.79991,-0.214336 0.79991,-0.214333 z m 3.19963,-0.857339 -0.42867,-1.599814 -0.79991,0.214333 -0.79991,0.214336 0.42867,1.599814 0.42867,1.599815 0.79991,-0.214336 0.79991,-0.214333 z m 3.19963,-0.857338 -0.42867,-1.599814 -0.79991,0.214333 -0.79991,0.214336 0.42867,1.599814 0.42867,1.599815 0.79991,-0.214336 0.7999,-0.214333 z m 3.19963,-0.857338 -0.42867,-1.599814 -0.79991,0.214333 -0.79991,0.214336 0.42867,1.599814 0.42867,1.599815 0.79991,-0.214336 0.7999,-0.214333 z m 3.19962,-0.857338 -0.42866,-1.599814 -0.79991,0.214333 -0.79991,0.214336 0.42867,1.599814 0.42867,1.599815 0.79991,-0.214336 0.7999,-0.214333 z m 3.19963,-0.857338 -0.42867,-1.599815 -0.7999,0.214334 -0.79991,0.214335 0.42867,1.599815 0.42867,1.599815 0.79991,-0.214336 0.7999,-0.214333 z m 3.19963,-0.857338 -0.42867,-1.599815 -0.7999,0.214334 -0.79991,0.214335 0.42867,1.599815 0.42867,1.599815 0.79991,-0.214336 0.7999,-0.214333 z m 3.19963,-0.857338 -0.42867,-1.599815 -0.7999,0.21433 -0.79991,0.214339 0.42867,1.599815 0.42867,1.599815 0.79991,-0.214336 0.7999,-0.214333 z m 3.41397,-0.05743 -0.21434,-0.799907 -0.7999,0.214333 -0.79991,0.214336 0.21433,0.799907 0.21434,0.799908 0.79991,-0.214336 0.7999,-0.214334 z m -38.01305,-26.679965 -0.42867,-1.59981 -0.7999,0.21433 -0.79991,0.21433 -0.21434,-0.79991 -0.21433,-0.7999 0.79991,-0.21434 0.7999,-0.21433 -0.21433,-0.79991 -0.21434,-0.7999 -1.59981,0.42866 -1.59982,0.42867 -0.21433,-0.79991 -0.21434,-0.7999 1.59982,-0.42867 1.59981,-0.42867 0.21434,0.7999 0.21433,0.79992 0.79992,-0.21434 0.7999,-0.21433 -0.42867,-1.59982 -0.42867,-1.59981 -0.7999,0.21433 -0.79992,0.21434 -0.21433,-0.79992 -0.21433,-0.7999 0.79991,-0.21433 0.7999,-0.21434 -0.21434,-0.79991 -0.21433,-0.7999 0.79991,-0.21434 0.79991,-0.21433 0.21433,0.7999 0.21434,0.79991 -0.79991,0.21434 -0.79991,0.21433 0.21433,0.79991 0.21434,0.79991 1.59981,-0.42867 1.59982,-0.42867 0.42867,1.59981 0.42867,1.59982 -0.79991,0.21433 -0.79991,0.21434 0.42867,1.59981 0.42867,1.59982 -0.7999,0.21433 -0.79991,0.21434 0.42866,1.59981 0.42867,1.59982 -0.7999,0.21433 -0.79991,0.21433 z"
         id="path972" /><path
         style="fill:#a33300;stroke-width:0.0517578"
         d="m 213.00049,-133.11075 -0.85733,-3.19963 -0.79992,0.21434 -0.7999,0.21433 -0.21434,-0.79991 -0.21433,-0.7999 -0.79991,0.21433 -0.7999,0.21434 -0.21434,-0.79991 -0.21433,-0.79991 -3.19963,0.85734 -3.19963,0.85734 -0.21434,-0.79991 -0.21433,-0.79991 0.7999,-0.21433 0.79991,-0.21433 -0.21433,-0.79992 -0.21433,-0.7999 4.79944,-1.28601 4.79944,-1.286 0.21434,0.7999 0.21433,0.79991 0.79991,-0.21433 0.79991,-0.21434 0.21433,0.79991 0.21434,0.79991 1.59981,-0.42867 1.59982,-0.42867 -0.64301,-2.39973 -0.643,-2.39971 0.7999,-0.21434 0.79991,-0.21433 -0.42867,-1.59982 -0.42866,-1.59981 0.7999,-0.21434 0.79991,-0.21433 0.21433,0.7999 0.21434,0.79991 0.7999,-0.21433 0.79991,-0.21434 0.21434,0.79991 0.21433,0.79991 0.79991,-0.21434 0.79991,-0.21433 0.42867,1.59981 0.42867,1.59982 -0.79992,0.21433 -0.7999,0.21434 -0.21434,-0.79991 -0.21433,-0.79991 -0.79991,0.21434 -0.7999,0.21433 0.42867,1.59982 0.42867,1.59981 1.59981,-0.42867 1.59981,-0.42867 0.21434,0.79991 0.21433,0.79991 -0.79991,0.21433 -0.7999,0.21434 0.21433,0.7999 0.21434,0.79991 -0.79991,0.21434 -0.79991,0.21433 0.64301,2.39972 0.643,2.39972 -0.79991,0.21434 -0.7999,0.21433 0.21433,0.79991 0.21433,0.79991 -3.99954,1.07167 -3.99953,1.07167 z"
         id="path970" /><path
         style="fill:#00305b;stroke-width:0.0517578"
         d="m 217.74663,-89.800896 -0.42867,-1.599814 1.59981,-0.428669 1.59982,-0.428669 0.42867,1.599814 0.42867,1.599815 -1.59982,0.428669 -1.59981,0.428669 z m 6.39926,-1.714676 -0.42867,-1.599815 1.59981,-0.428669 1.59982,-0.428669 0.42867,1.599815 0.42866,1.599815 -1.59981,0.428669 -1.59981,0.428669 z m 4.68458,-8.113938 -0.42867,-1.59981 1.59981,-0.42867 1.59982,-0.42867 0.42867,1.59981 0.42867,1.599817 -1.59982,0.428669 -1.59981,0.428669 z m 6.39926,-1.71468 -0.42867,-1.59981 1.59981,-0.42867 1.59982,-0.42867 0.42867,1.59982 0.42867,1.59981 -1.59982,0.42867 -1.59981,0.428669 z m -7.37146,-8.31288 -0.42867,-1.59981 0.7999,-0.21433 0.79991,-0.21434 0.42867,1.59981 0.42867,1.59982 -0.79991,0.21433 -0.7999,0.21434 z m 4.79944,-1.286 -0.42867,-1.59982 0.79991,-0.21433 0.79991,-0.21434 0.42867,1.59982 0.42867,1.59981 -0.79992,0.21434 -0.7999,0.21433 z m -18.3866,-30.22418 -0.21433,-0.79991 -0.79991,0.21434 -0.79991,0.21433 -0.21433,-0.79991 -0.21434,-0.7999 -2.39972,0.643 -2.39972,0.643 -0.21434,-0.79991 -0.21433,-0.7999 0.7999,-0.21433 0.79992,-0.21434 -0.21434,-0.79991 -0.21433,-0.7999 3.19963,-0.85734 3.19962,-0.85734 0.21434,0.7999 0.21433,0.79991 0.79991,-0.21433 0.79991,-0.21433 0.643,2.39971 0.64301,2.39973 -1.59982,0.42867 -1.59981,0.42867 z m 6.18493,-2.51458 -0.42867,-1.59982 0.7999,-0.21433 0.79991,-0.21434 0.42867,1.59982 0.42867,1.59981 -0.79991,0.21434 -0.7999,0.21433 z"
         id="path968" /></g><g
       aria-label="DREAMLAND"
       transform="rotate(-11.342526,1069.9173,106.25005)"
       id="text2853"
       style="font-style:italic;font-weight:900;font-size:14.9049px;line-height:0.95;font-family:Montserrat;-inkscape-font-specification:'Montserrat Heavy Italic';letter-spacing:-0.127px;fill:#006b96;stroke-width:0.264583"><path
         d="m 43.700106,-34.696766 2.086685,-10.43343 h 4.709949 q 1.654444,0 2.846836,0.536577 1.192392,0.536576 1.833302,1.535204 0.640911,0.983724 0.640911,2.354975 0,1.386155 -0.491862,2.489118 -0.476957,1.102962 -1.356346,1.892922 -0.864484,0.78996 -2.056876,1.207297 -1.192392,0.417337 -2.623262,0.417337 z m 4.069037,-2.742501 h 1.639539 q 0.939009,0 1.565015,-0.402433 0.64091,-0.417337 0.968818,-1.102962 0.327908,-0.700531 0.327908,-1.55011 0,-0.611101 -0.253384,-1.028438 -0.238478,-0.417337 -0.73034,-0.640911 -0.476956,-0.223573 -1.192392,-0.223573 h -1.341441 z"
         id="path7824" /><path
         d="m 55.604527,-34.696766 2.086686,-10.43343 h 4.680139 q 2.071781,0 3.204553,0.909199 1.132773,0.894294 1.132773,2.518928 0,1.311631 -0.655816,2.295355 -0.640911,0.983723 -1.833303,1.535204 -1.177487,0.551482 -2.787216,0.551482 h -3.368507 l 1.878017,-1.475585 -0.819769,4.098847 z m 6.379297,0 -2.146305,-3.800749 h 3.62189 l 2.176116,3.800749 z m -2.1314,-3.68151 -1.237107,-1.594824 h 2.995885 q 0.73034,0 1.132772,-0.357718 0.402433,-0.372622 0.402433,-1.028438 0,-0.566386 -0.357718,-0.804865 -0.342813,-0.253383 -0.953914,-0.253383 h -2.727596 l 1.878017,-1.639539 z"
         id="path7826" /><path
         d="m 71.112751,-41.254922 h 4.650328 l -0.506766,2.533833 h -4.650329 z m -0.551482,3.905084 h 5.23162 l -0.536576,2.653072 h -8.674652 l 2.086686,-10.43343 h 8.480888 l -0.536576,2.653073 h -5.022952 z"
         id="path7828" /><path
         d="m 75.972862,-34.696766 6.647585,-10.43343 h 3.457937 l 2.474213,10.43343 h -3.502651 l -1.684254,-8.808796 h 1.371251 l -5.052761,8.808796 z m 3.070409,-1.818398 1.401061,-2.533833 h 4.799378 l 0.387527,2.533833 z"
         id="path7830" /><path
         d="m 88.991983,-34.696766 2.086686,-10.43343 h 2.861741 l 2.787216,6.811539 h -1.5203 l 5.365764,-6.811539 h 2.99589 l -2.05688,10.43343 h -3.204554 l 1.088057,-5.604242 0.506767,-0.02981 -3.606986,4.695043 h -1.550109 l -2.027067,-4.709948 0.596196,0.04471 -1.117867,5.604242 z"
         id="path7832" /><path
         d="m 102.55424,-34.696766 2.08668,-10.43343 h 3.51756 l -1.53521,7.705833 h 4.70995 l -0.55148,2.727597 z"
         id="path7834" /><path
         d="m 111.35077,-34.696766 6.64758,-10.43343 h 3.45794 l 2.47421,10.43343 h -3.50265 l -1.68425,-8.808796 h 1.37125 l -5.05276,8.808796 z m 3.0704,-1.818398 1.40107,-2.533833 h 4.79937 l 0.38753,2.533833 z"
         id="path7836" /><path
         d="m 124.36988,-34.696766 2.08669,-10.43343 h 2.89155 l 3.91999,6.349488 h -1.2222 l 1.26691,-6.349488 h 3.42813 l -2.08669,10.43343 h -2.89155 l -3.91999,-6.349487 h 1.22221 l -1.26692,6.349487 z"
         id="path7838" /><path
         d="m 135.77641,-34.696766 2.08668,-10.43343 h 4.70995 q 1.65445,0 2.84684,0.536577 1.19239,0.536576 1.8333,1.535204 0.64091,0.983724 0.64091,2.354975 0,1.386155 -0.49186,2.489118 -0.47696,1.102962 -1.35635,1.892922 -0.86448,0.78996 -2.05687,1.207297 -1.1924,0.417337 -2.62327,0.417337 z m 4.06903,-2.742501 h 1.63954 q 0.93901,0 1.56502,-0.402433 0.64091,-0.417337 0.96882,-1.102962 0.3279,-0.700531 0.3279,-1.55011 0,-0.611101 -0.25338,-1.028438 -0.23848,-0.417337 -0.73034,-0.640911 -0.47696,-0.223573 -1.19239,-0.223573 h -1.34144 z"
         id="path7840" /></g><g
       aria-label="ANIMALIA"
       transform="rotate(-11.342526,1069.9173,106.25005)"
       id="text4701"
       style="font-style:italic;font-weight:900;font-size:14.9049px;line-height:0.95;font-family:Montserrat;-inkscape-font-specification:'Montserrat Heavy Italic';letter-spacing:-0.127px;fill:#006b96;stroke-width:0.264583"><path
         d="m 46.623127,-49.534744 6.647585,-10.43343 h 3.457937 l 2.474213,10.43343 h -3.502651 l -1.684254,-8.808796 h 1.371251 l -5.052761,8.808796 z m 3.070409,-1.818398 1.401061,-2.533833 h 4.799377 l 0.387528,2.533833 z"
         id="path7807" /><path
         d="m 59.642245,-49.534744 2.086686,-10.43343 h 2.891551 l 3.919988,6.349487 h -1.222202 l 1.266917,-6.349487 h 3.428127 l -2.086686,10.43343 h -2.891551 l -3.919988,-6.349487 h 1.222202 l -1.266917,6.349487 z"
         id="path7809" /><path
         d="m 71.498768,-49.534744 2.086686,-10.43343 h 3.517556 l -2.086686,10.43343 z"
         id="path7811" /><path
         d="m 76.588461,-49.534744 2.086686,-10.43343 h 2.86174 l 2.787217,6.811539 h -1.5203 l 5.365764,-6.811539 h 2.995885 l -2.056877,10.43343 h -3.204553 l 1.088058,-5.604243 0.506766,-0.02981 -3.606985,4.695043 h -1.55011 l -2.027066,-4.709948 0.596196,0.04471 -1.117868,5.604243 z"
         id="path7813" /><path
         d="m 89.547939,-49.534744 6.647585,-10.43343 h 3.457937 l 2.474209,10.43343 h -3.502647 l -1.684254,-8.808796 h 1.371251 l -5.052761,8.808796 z m 3.07041,-1.818398 1.40106,-2.533833 h 4.799378 l 0.387527,2.533833 z"
         id="path7815" /><path
         d="m 102.56706,-49.534744 2.08669,-10.43343 h 3.51755 l -1.5352,7.705833 h 4.70995 l -0.55149,2.727597 z"
         id="path7817" /><path
         d="m 111.63636,-49.534744 2.08669,-10.43343 h 3.51755 l -2.08668,10.43343 z"
         id="path7819" /><path
         d="m 115.59328,-49.534744 6.64759,-10.43343 h 3.45793 l 2.47422,10.43343 h -3.50266 l -1.68425,-8.808796 h 1.37125 l -5.05276,8.808796 z m 3.07041,-1.818398 1.40106,-2.533833 h 4.79938 l 0.38753,2.533833 z"
         id="path7821" /></g><path
       style="opacity:1;fill:#806600;fill-opacity:1;stroke:none;stroke-width:0.0703624;stroke-linecap:round;stroke-linejoin:round;paint-order:markers fill stroke"
       d="m 120.15753,-42.999762 -0.67128,1.56373 -1.00304,-1.375111 -0.49196,1.628841 -1.15032,-1.254187 -0.30696,1.6738 -1.28312,-1.117244 -0.11731,1.69757 -1.40094,-0.966866 0.0739,1.700672 -1.50016,-0.804085 0.26355,1.681034 -1.58079,-0.630453 0.4501,1.641243 -1.64124,-0.450102 0.63045,1.580783 -1.68103,-0.263549 0.80409,1.500166 -1.70068,-0.0739 0.96687,1.400948 -1.69757,0.117307 1.11724,1.283125 -1.6738,0.306958 1.25419,1.150317 -1.62884,0.491961 1.37511,1.003039 -1.56373,0.671277 1.47846,0.842326 -1.47846,0.842324 1.56373,0.671794 -1.37511,1.002525 1.62884,0.492475 -1.25419,1.150317 1.6738,0.306442 -1.11724,1.283642 1.69757,0.117306 -0.96687,1.400431 1.70068,-0.07338 -0.80409,1.500165 1.68103,-0.263549 -0.63045,1.580783 1.64124,-0.450102 -0.4501,1.641243 1.58079,-0.630969 -0.26355,1.681552 1.50016,-0.804087 -0.0739,1.700156 1.40094,-0.966867 0.11731,1.698087 1.28312,-1.11776 0.30696,1.674316 1.15032,-1.254186 0.49196,1.628841 1.00304,-1.375111 0.67128,1.563729 0.84232,-1.478463 0.84233,1.478463 0.67179,-1.563729 1.00253,1.375111 0.49247,-1.628841 1.15032,1.254186 0.30644,-1.674316 1.28364,1.11776 0.11731,-1.698087 1.40043,0.966867 -0.0734,-1.700156 1.50017,0.804087 -0.26356,-1.681552 1.58079,0.630969 -0.4501,-1.641243 1.64124,0.450102 -0.63097,-1.580783 1.68155,0.263549 -0.80408,-1.500165 1.70015,0.07338 -0.96687,-1.400431 1.69809,-0.117306 -1.11776,-1.283642 1.67432,-0.306442 -1.25419,-1.150317 1.62884,-0.492475 -1.37511,-1.002525 1.56373,-0.671794 -1.47846,-0.842324 1.47846,-0.842326 -1.56373,-0.671277 1.37511,-1.003039 -1.62884,-0.491961 1.25419,-1.150317 -1.67432,-0.306958 1.11776,-1.283125 -1.69809,-0.117307 0.96687,-1.400948 -1.70015,0.0739 0.80408,-1.500166 -1.68155,0.263549 0.63097,-1.580783 -1.64124,0.450102 0.4501,-1.641243 -1.58079,0.630453 0.26356,-1.681034 -1.50017,0.804085 0.0734,-1.700672 -1.40043,0.966866 -0.11731,-1.69757 -1.28364,1.117244 -0.30644,-1.6738 -1.15032,1.254187 -0.49247,-1.628841 -1.00253,1.375111 -0.67179,-1.56373 -0.84233,1.478463 z"
       id="path5260"
       transform="translate(3.9095603e-7,212.50001)" /><path
       id="path12311"
       style="opacity:1;fill:#ffffff;fill-opacity:1;stroke:none;stroke-width:0.352777;stroke-linecap:round;stroke-linejoin:round;paint-order:markers fill stroke"
       d="m 120.99985,-39.999946 c -6.62725,1.16e-4 -11.99967,5.372533 -11.99979,11.999784 -1.7e-4,6.627453 5.37234,12.000186 11.99979,12.000302 6.62765,1.66e-4 12.00047,-5.37265 12.0003,-12.000302 -1.2e-4,-6.62745 -5.37285,-11.99995 -12.0003,-11.999784 z m 0,0.999939 c 6.07521,-1.99e-4 11.00027,4.924633 11.00036,10.999845 2e-4,6.075415 -4.92495,11.000562 -11.00036,11.000363 -6.07522,-8.3e-5 -11.00005,-4.925148 -10.99985,-11.000363 9e-5,-6.075013 4.92484,-10.999762 10.99985,-10.999845 z m 0,0.500228 c -5.79869,2.1e-4 -10.49941,4.700925 -10.49962,10.499617 -7e-5,5.798894 4.70073,10.499925 10.49962,10.500135 5.79909,7.2e-5 10.5002,-4.701042 10.50013,-10.500135 -2.1e-4,-5.798891 -4.70124,-10.499689 -10.50013,-10.499617 z"
       transform="translate(3.9095603e-7,212.50001)" /><g
       aria-label="HOMEBREW"
       transform="translate(3.9095603e-7,212.50001)"
       id="text12396"
       style="font-weight:600;font-size:3.175px;line-height:0.95;font-family:Montserrat;-inkscape-font-specification:'Montserrat Semi-Bold';letter-spacing:-0.0899583px;fill:#806600;stroke-width:0.264583"><path
         d="m 112.63452,-29.111153 h 0.41275 v 2.2225 h -0.41275 z m -1.14935,2.2225 h -0.41275 v -2.2225 h 0.41275 z m 1.1811,-0.9525 h -1.21603 v -0.352425 h 1.21603 z"
         style="text-align:center;text-anchor:middle"
         id="path7724" /><path
         d="m 114.59561,-26.856903 q -0.26035,0 -0.47943,-0.08573 -0.21907,-0.08573 -0.381,-0.238125 -0.16192,-0.155575 -0.25082,-0.36195 -0.0889,-0.20955 -0.0889,-0.4572 0,-0.24765 0.0889,-0.454025 0.0889,-0.20955 0.25082,-0.36195 0.16193,-0.155575 0.381,-0.2413 0.21908,-0.08573 0.47625,-0.08573 0.26035,0 0.47625,0.08573 0.21908,0.08573 0.381,0.2413 0.16193,0.1524 0.25083,0.36195 0.0889,0.206375 0.0889,0.454025 0,0.24765 -0.0889,0.4572 -0.0889,0.20955 -0.25083,0.36195 -0.16192,0.1524 -0.381,0.238125 -0.2159,0.08573 -0.47307,0.08573 z m -0.003,-0.36195 q 0.16828,0 0.31115,-0.05715 0.14288,-0.05715 0.24765,-0.161925 0.10478,-0.10795 0.16193,-0.24765 0.0603,-0.142875 0.0603,-0.314325 0,-0.17145 -0.0603,-0.31115 -0.0571,-0.142875 -0.16193,-0.24765 -0.10477,-0.10795 -0.24765,-0.1651 -0.14287,-0.05715 -0.31115,-0.05715 -0.16827,0 -0.31115,0.05715 -0.1397,0.05715 -0.24765,0.1651 -0.10477,0.104775 -0.1651,0.24765 -0.0572,0.1397 -0.0572,0.31115 0,0.168275 0.0572,0.31115 0.0603,0.142875 0.1651,0.250825 0.10478,0.104775 0.24765,0.161925 0.14288,0.05715 0.31115,0.05715 z"
         style="text-align:center;text-anchor:middle"
         id="path7726" /><path
         d="m 116.1376,-26.888653 v -2.2225 h 0.33972 l 0.97155,1.622425 h -0.1778 l 0.95568,-1.622425 h 0.33972 l 0.003,2.2225 h -0.39053 l -0.003,-1.609725 h 0.0825 l -0.8128,1.355725 h -0.18415 l -0.8255,-1.355725 h 0.0953 v 1.609725 z"
         style="text-align:center;text-anchor:middle"
         id="path7728" /><path
         d="m 119.46076,-28.187228 h 1.1049 v 0.339725 h -1.1049 z m 0.0318,0.9525 h 1.25413 v 0.346075 h -1.66688 v -2.2225 h 1.62243 v 0.346075 h -1.20968 z"
         style="text-align:center;text-anchor:middle"
         id="path7730" /><path
         d="m 121.11705,-26.888653 v -2.2225 h 1.0414 q 0.40005,0 0.6096,0.15875 0.20955,0.155575 0.20955,0.4191 0,0.1778 -0.0825,0.3048 -0.0825,0.123825 -0.22225,0.193675 -0.13653,0.06668 -0.29845,0.06668 l 0.0571,-0.1143 q 0.18732,0 0.33655,0.06985 0.14922,0.06668 0.23495,0.19685 0.0889,0.130175 0.0889,0.32385 0,0.28575 -0.21908,0.4445 -0.21907,0.15875 -0.65087,0.15875 z m 0.41275,-0.32385 h 0.66675 q 0.23177,0 0.3556,-0.0762 0.12382,-0.0762 0.12382,-0.244475 0,-0.1651 -0.12382,-0.2413 -0.12383,-0.07938 -0.3556,-0.07938 h -0.6985 v -0.320675 h 0.61595 q 0.2159,0 0.3302,-0.0762 0.11747,-0.0762 0.11747,-0.2286 0,-0.155575 -0.11747,-0.231775 -0.1143,-0.0762 -0.3302,-0.0762 h -0.5842 z"
         style="text-align:center;text-anchor:middle"
         id="path7732" /><path
         d="m 123.44326,-26.888653 v -2.2225 h 0.9144 q 0.29528,0 0.50483,0.09525 0.21272,0.09525 0.32702,0.27305 0.1143,0.1778 0.1143,0.422275 0,0.244475 -0.1143,0.422275 -0.1143,0.174625 -0.32702,0.269875 -0.20955,0.09208 -0.50483,0.09208 h -0.6858 l 0.18415,-0.187325 v 0.835025 z m 1.45415,0 -0.56197,-0.80645 h 0.44132 l 0.56515,0.80645 z m -1.0414,-0.790575 -0.18415,-0.19685 h 0.66675 q 0.27305,0 0.40958,-0.117475 0.1397,-0.117475 0.1397,-0.327025 0,-0.212725 -0.1397,-0.327025 -0.13653,-0.1143 -0.40958,-0.1143 h -0.66675 l 0.18415,-0.2032 z"
         style="text-align:center;text-anchor:middle"
         id="path7734" /><path
         d="m 126.05523,-28.187228 h 1.1049 v 0.339725 h -1.1049 z m 0.0318,0.9525 h 1.25412 v 0.346075 h -1.66687 v -2.2225 h 1.62242 v 0.346075 h -1.20967 z"
         style="text-align:center;text-anchor:middle"
         id="path7736" /><path
         d="m 128.20364,-26.888653 -0.7366,-2.2225 h 0.42862 l 0.65723,2.009775 h -0.21273 l 0.68263,-2.009775 h 0.381 l 0.66357,2.009775 h -0.20637 l 0.6731,-2.009775 h 0.3937 l -0.7366,2.2225 h -0.43815 l -0.60643,-1.812925 h 0.1143 l -0.61595,1.812925 z"
         style="text-align:center;text-anchor:middle"
         id="path7738" /></g><g
       aria-label="THIS SEAL MARKS A GENUINE"
       transform="translate(3.9095603e-7,212.50001)"
       id="text12538"
       style="font-size:1.76389px;line-height:1.25;text-align:center;text-anchor:middle;fill:#806600;stroke-width:0.264583"><path
         d="m 116.84934,-32.296555 v -1.121834 h -0.43391 v -0.112889 h 0.99836 v 0.112889 h -0.43392 v 1.121834 z"
         style="font-family:Montserrat;-inkscape-font-specification:Montserrat"
         id="path7741" /><path
         d="m 118.52504,-33.531278 h 0.12876 v 1.234723 h -0.12876 z m -0.77259,1.234723 h -0.13052 v -1.234723 h 0.13052 z m 0.78494,-0.569736 h -0.79905 v -0.114653 h 0.79905 z"
         style="font-family:Montserrat;-inkscape-font-specification:Montserrat"
         id="path7743" /><path
         d="m 119.05597,-32.296555 v -1.234723 h 0.13053 v 1.234723 z"
         style="font-family:Montserrat;-inkscape-font-specification:Montserrat"
         id="path7745" /><path
         d="m 119.92909,-32.285971 q -0.13758,0 -0.26458,-0.0441 -0.12524,-0.04586 -0.19403,-0.116417 l 0.0512,-0.100542 q 0.0653,0.0635 0.17463,0.107597 0.11112,0.04233 0.23283,0.04233 0.11642,0 0.18874,-0.02822 0.0741,-0.02999 0.10759,-0.07937 0.0353,-0.04939 0.0353,-0.109361 0,-0.07232 -0.0423,-0.116417 -0.0406,-0.0441 -0.1076,-0.06879 -0.067,-0.02646 -0.14817,-0.04586 -0.0811,-0.0194 -0.16227,-0.04057 -0.0811,-0.02293 -0.14993,-0.05997 -0.067,-0.03704 -0.10936,-0.09701 -0.0406,-0.06174 -0.0406,-0.160514 0,-0.09172 0.0476,-0.16757 0.0494,-0.07761 0.14993,-0.123472 0.10054,-0.04762 0.25753,-0.04762 0.10407,0 0.20637,0.02999 0.10231,0.02822 0.17639,0.07938 l -0.0441,0.10407 q -0.0794,-0.05292 -0.16934,-0.07761 -0.0882,-0.0247 -0.17109,-0.0247 -0.11113,0 -0.18345,0.02999 -0.0723,0.02999 -0.1076,0.08114 -0.0335,0.04939 -0.0335,0.112889 0,0.07232 0.0406,0.116417 0.0423,0.0441 0.10936,0.06879 0.0688,0.02469 0.14993,0.0441 0.0811,0.0194 0.16051,0.04233 0.0811,0.02293 0.14817,0.05997 0.0688,0.03528 0.10936,0.09525 0.0423,0.05997 0.0423,0.156986 0,0.08996 -0.0494,0.167569 -0.0494,0.07585 -0.1517,0.123473 -0.10054,0.04586 -0.25929,0.04586 z"
         style="font-family:Montserrat;-inkscape-font-specification:Montserrat"
         id="path7747" /><path
         d="m 121.47602,-32.285971 q -0.13758,0 -0.26458,-0.0441 -0.12524,-0.04586 -0.19403,-0.116417 l 0.0512,-0.100542 q 0.0653,0.0635 0.17463,0.107597 0.11112,0.04233 0.23283,0.04233 0.11642,0 0.18874,-0.02822 0.0741,-0.02999 0.10759,-0.07937 0.0353,-0.04939 0.0353,-0.109361 0,-0.07232 -0.0423,-0.116417 -0.0406,-0.0441 -0.1076,-0.06879 -0.067,-0.02646 -0.14817,-0.04586 -0.0811,-0.0194 -0.16227,-0.04057 -0.0811,-0.02293 -0.14993,-0.05997 -0.067,-0.03704 -0.10937,-0.09701 -0.0406,-0.06174 -0.0406,-0.160514 0,-0.09172 0.0476,-0.16757 0.0494,-0.07761 0.14993,-0.123472 0.10054,-0.04762 0.25753,-0.04762 0.10407,0 0.20637,0.02999 0.10231,0.02822 0.17639,0.07938 l -0.0441,0.10407 q -0.0794,-0.05292 -0.16934,-0.07761 -0.0882,-0.0247 -0.1711,-0.0247 -0.11112,0 -0.18344,0.02999 -0.0723,0.02999 -0.1076,0.08114 -0.0335,0.04939 -0.0335,0.112889 0,0.07232 0.0406,0.116417 0.0423,0.0441 0.10936,0.06879 0.0688,0.02469 0.14993,0.0441 0.0811,0.0194 0.16051,0.04233 0.0811,0.02293 0.14817,0.05997 0.0688,0.03528 0.10936,0.09525 0.0423,0.05997 0.0423,0.156986 0,0.08996 -0.0494,0.167569 -0.0494,0.07585 -0.1517,0.123473 -0.10054,0.04586 -0.25929,0.04586 z"
         style="font-family:Montserrat;-inkscape-font-specification:Montserrat"
         id="path7749" /><path
         d="m 122.3368,-32.97918 h 0.65264 v 0.111125 h -0.65264 z m 0.0141,0.569736 h 0.7426 v 0.112889 h -0.87313 v -1.234723 h 0.84667 v 0.112889 h -0.71614 z"
         style="font-family:Montserrat;-inkscape-font-specification:Montserrat"
         id="path7751" /><path
         d="m 123.20287,-32.296555 0.56444,-1.234723 h 0.12876 l 0.56445,1.234723 h -0.13758 l -0.51859,-1.158875 h 0.0529 l -0.51858,1.158875 z m 0.22225,-0.329847 0.0388,-0.105833 h 0.71791 l 0.0388,0.105833 z"
         style="font-family:Montserrat;-inkscape-font-specification:Montserrat"
         id="path7753" /><path
         d="m 124.66513,-32.296555 v -1.234723 h 0.13053 v 1.121834 h 0.69144 v 0.112889 z"
         style="font-family:Montserrat;-inkscape-font-specification:Montserrat"
         id="path7755" /><path
         d="m 112.53311,-30.079762 v -1.234724 h 0.1076 l 0.56444,0.963084 h -0.0564 l 0.55915,-0.963084 h 0.1076 v 1.234724 h -0.12524 v -1.038932 h 0.03 l -0.51506,0.881945 h -0.0617 l -0.51859,-0.881945 h 0.0335 v 1.038932 z"
         style="font-family:Montserrat;-inkscape-font-specification:Montserrat"
         id="path7757" /><path
         d="m 114.02007,-30.079762 0.56444,-1.234724 h 0.12877 l 0.56444,1.234724 h -0.13758 l -0.51858,-1.158876 h 0.0529 l -0.51858,1.158876 z m 0.22225,-0.329848 0.0388,-0.105833 h 0.7179 l 0.0388,0.105833 z"
         style="font-family:Montserrat;-inkscape-font-specification:Montserrat"
         id="path7759" /><path
         d="m 115.48233,-30.079762 v -1.234724 h 0.46214 q 0.15699,0 0.26988,0.05115 0.11289,0.04939 0.17286,0.144639 0.0617,0.09349 0.0617,0.227542 0,0.130528 -0.0617,0.225778 -0.06,0.09349 -0.17286,0.144639 -0.11289,0.04939 -0.26988,0.04939 h -0.38982 l 0.0582,-0.05997 v 0.451556 z m 0.84314,0 -0.3175,-0.448029 h 0.14111 l 0.31927,0.448029 z m -0.71261,-0.440973 -0.0582,-0.06174 h 0.38629 q 0.18521,0 0.28046,-0.08114 0.097,-0.08114 0.097,-0.227542 0,-0.148167 -0.097,-0.229306 -0.0953,-0.08114 -0.28046,-0.08114 h -0.38629 l 0.0582,-0.06174 z"
         style="font-family:Montserrat;-inkscape-font-specification:Montserrat"
         id="path7761" /><path
         d="m 116.87051,-30.386679 -0.005,-0.15875 0.74789,-0.769057 h 0.14993 l -0.54504,0.571501 -0.0741,0.07938 z m -0.11289,0.306917 v -1.234724 h 0.13053 v 1.234724 z m 0.88724,0 -0.53269,-0.613834 0.0882,-0.09525 0.59972,0.709084 z"
         style="font-family:Montserrat;-inkscape-font-specification:Montserrat"
         id="path7763" /><path
         d="m 118.32572,-30.069179 q -0.13759,0 -0.26459,-0.0441 -0.12523,-0.04586 -0.19402,-0.116417 l 0.0512,-0.100542 q 0.0653,0.0635 0.17462,0.107597 0.11113,0.04233 0.23284,0.04233 0.11641,0 0.18873,-0.02822 0.0741,-0.02999 0.1076,-0.07938 0.0353,-0.04939 0.0353,-0.109361 0,-0.07232 -0.0423,-0.116416 -0.0406,-0.0441 -0.1076,-0.06879 -0.067,-0.02646 -0.14817,-0.04586 -0.0811,-0.0194 -0.16228,-0.04057 -0.0811,-0.02293 -0.14993,-0.05997 -0.067,-0.03704 -0.10936,-0.09701 -0.0406,-0.06174 -0.0406,-0.160514 0,-0.09172 0.0476,-0.16757 0.0494,-0.07761 0.14993,-0.123472 0.10054,-0.04763 0.25753,-0.04763 0.10407,0 0.20637,0.02999 0.10231,0.02822 0.17639,0.07938 l -0.0441,0.10407 q -0.0794,-0.05292 -0.16933,-0.07761 -0.0882,-0.0247 -0.1711,-0.0247 -0.11112,0 -0.18344,0.02999 -0.0723,0.02999 -0.1076,0.08114 -0.0335,0.04939 -0.0335,0.112889 0,0.07232 0.0406,0.116417 0.0423,0.0441 0.10936,0.06879 0.0688,0.02469 0.14993,0.0441 0.0811,0.0194 0.16051,0.04233 0.0811,0.02293 0.14817,0.05997 0.0688,0.03528 0.10936,0.09525 0.0423,0.05997 0.0423,0.156986 0,0.08996 -0.0494,0.167569 -0.0494,0.07585 -0.15169,0.123473 -0.10054,0.04586 -0.25929,0.04586 z"
         style="font-family:Montserrat;-inkscape-font-specification:Montserrat"
         id="path7765" /><path
         d="m 119.33466,-30.079762 0.56445,-1.234724 h 0.12876 l 0.56444,1.234724 h -0.13758 l -0.51858,-1.158876 h 0.0529 l -0.51858,1.158876 z m 0.22225,-0.329848 0.0388,-0.105833 h 0.7179 l 0.0388,0.105833 z"
         style="font-family:Montserrat;-inkscape-font-specification:Montserrat"
         id="path7767" /><path
         d="m 121.80058,-30.069179 q -0.14112,0 -0.26106,-0.04586 -0.11818,-0.04763 -0.20638,-0.132292 -0.0864,-0.08467 -0.13581,-0.19932 -0.0476,-0.114652 -0.0476,-0.250472 0,-0.13582 0.0476,-0.250472 0.0494,-0.114653 0.13758,-0.19932 0.0882,-0.08467 0.20637,-0.130528 0.11995,-0.04763 0.26106,-0.04763 0.14111,0 0.25753,0.0441 0.11818,0.0441 0.20108,0.134056 l -0.0811,0.0829 q -0.0776,-0.07761 -0.1711,-0.111125 -0.0935,-0.03351 -0.20108,-0.03351 -0.11465,0 -0.21167,0.0388 -0.0953,0.03704 -0.16757,0.107598 -0.0705,0.06879 -0.11112,0.162278 -0.0388,0.09172 -0.0388,0.202847 0,0.109361 0.0388,0.202847 0.0406,0.09349 0.11112,0.164042 0.0723,0.06879 0.16757,0.107597 0.097,0.03704 0.20991,0.03704 0.10583,0 0.19932,-0.03175 0.0953,-0.03175 0.17462,-0.107597 l 0.0741,0.09878 q -0.0882,0.07761 -0.20638,0.11818 -0.11818,0.03881 -0.24694,0.03881 z m 0.32808,-0.172861 v -0.455084 h 0.12524 v 0.470959 z"
         style="font-family:Montserrat;-inkscape-font-specification:Montserrat"
         id="path7769" /><path
         d="m 122.73896,-30.762388 h 0.65264 v 0.111125 h -0.65264 z m 0.0141,0.569737 h 0.7426 v 0.112889 h -0.87312 v -1.234724 h 0.84666 v 0.112889 h -0.71614 z"
         style="font-family:Montserrat;-inkscape-font-specification:Montserrat"
         id="path7771" /><path
         d="m 123.80259,-30.079762 v -1.234724 h 0.10759 l 0.85196,1.072446 h -0.0564 v -1.072446 h 0.12876 v 1.234724 h -0.1076 l -0.85019,-1.072446 h 0.0564 v 1.072446 z"
         style="font-family:Montserrat;-inkscape-font-specification:Montserrat"
         id="path7773" /><path
         d="m 125.73405,-30.069179 q -0.23637,0 -0.37219,-0.13582 -0.13582,-0.135819 -0.13582,-0.402167 v -0.70732 h 0.13053 v 0.702029 q 0,0.218722 0.0988,0.322792 0.0988,0.104069 0.2787,0.104069 0.18168,0 0.28045,-0.104069 0.0988,-0.10407 0.0988,-0.322792 v -0.702029 h 0.127 v 0.70732 q 0,0.266348 -0.13582,0.402167 -0.13405,0.13582 -0.37041,0.13582 z"
         style="font-family:Montserrat;-inkscape-font-specification:Montserrat"
         id="path7775" /><path
         d="m 126.63363,-30.079762 v -1.234724 h 0.13053 v 1.234724 z"
         style="font-family:Montserrat;-inkscape-font-specification:Montserrat"
         id="path7777" /><path
         d="m 127.16632,-30.079762 v -1.234724 h 0.1076 l 0.85196,1.072446 h -0.0564 v -1.072446 h 0.12877 v 1.234724 h -0.1076 l -0.8502,-1.072446 h 0.0565 v 1.072446 z"
         style="font-family:Montserrat;-inkscape-font-specification:Montserrat"
         id="path7779" /><path
         d="m 128.71678,-30.762388 h 0.65264 v 0.111125 h -0.65264 z m 0.0141,0.569737 h 0.7426 v 0.112889 h -0.87313 v -1.234724 h 0.84667 v 0.112889 h -0.71614 z"
         style="font-family:Montserrat;-inkscape-font-specification:Montserrat"
         id="path7781" /></g><g
       aria-label="BUT HAS NO OTHER MEANING"
       transform="translate(3.9095603e-7,212.50001)"
       id="text13098"
       style="font-size:1.76389px;line-height:1.25;text-align:center;text-anchor:middle;fill:#806600;stroke-width:0.264583"><path
         d="m 112.15771,-24.68532 v -1.234723 h 0.53269 q 0.20638,0 0.31927,0.0829 0.11465,0.0829 0.11465,0.234597 0,0.100542 -0.0476,0.169334 -0.0459,0.06879 -0.127,0.104069 -0.0794,0.03528 -0.17463,0.03528 l 0.03,-0.04233 q 0.11818,0 0.20284,0.03704 0.0864,0.03528 0.13406,0.107598 0.0476,0.07055 0.0476,0.176389 0,0.156986 -0.11641,0.243416 -0.11466,0.08643 -0.34749,0.08643 z m 0.13053,-0.107597 h 0.43568 q 0.16228,0 0.24871,-0.05468 0.0864,-0.05644 0.0864,-0.178153 0,-0.119944 -0.0864,-0.174625 -0.0864,-0.05644 -0.24871,-0.05644 h -0.44979 v -0.107598 h 0.40745 q 0.14817,0 0.22931,-0.05644 0.0829,-0.05645 0.0829,-0.16757 0,-0.112889 -0.0829,-0.167569 -0.0811,-0.05645 -0.22931,-0.05645 h -0.39334 z"
         style="font-family:Montserrat;-inkscape-font-specification:Montserrat"
         id="path7683" /><path
         d="m 113.9851,-24.674737 q -0.23636,0 -0.37218,-0.135819 -0.13582,-0.13582 -0.13582,-0.402167 v -0.70732 h 0.13053 v 0.702028 q 0,0.218723 0.0988,0.322792 0.0988,0.10407 0.2787,0.10407 0.18168,0 0.28046,-0.10407 0.0988,-0.104069 0.0988,-0.322792 v -0.702028 h 0.127 v 0.70732 q 0,0.266347 -0.13581,0.402167 -0.13406,0.135819 -0.37042,0.135819 z"
         style="font-family:Montserrat;-inkscape-font-specification:Montserrat"
         id="path7685" /><path
         d="m 115.09987,-24.68532 v -1.121834 h -0.43391 v -0.112889 h 0.99836 v 0.112889 h -0.43392 v 1.121834 z"
         style="font-family:Montserrat;-inkscape-font-specification:Montserrat"
         id="path7687" /><path
         d="m 117.23771,-25.920043 h 0.12876 v 1.234723 h -0.12876 z m -0.77259,1.234723 h -0.13053 v -1.234723 h 0.13053 z m 0.78493,-0.569736 h -0.79904 v -0.114653 h 0.79904 z"
         style="font-family:Montserrat;-inkscape-font-specification:Montserrat"
         id="path7689" /><path
         d="m 117.57108,-24.68532 0.56444,-1.234723 h 0.12877 l 0.56444,1.234723 h -0.13758 l -0.51858,-1.158876 h 0.0529 l -0.51858,1.158876 z m 0.22225,-0.329847 0.0388,-0.105834 h 0.7179 l 0.0388,0.105834 z"
         style="font-family:Montserrat;-inkscape-font-specification:Montserrat"
         id="path7691" /><path
         d="m 119.37377,-24.674737 q -0.13758,0 -0.26458,-0.0441 -0.12524,-0.04586 -0.19403,-0.116417 l 0.0512,-0.100541 q 0.0653,0.0635 0.17462,0.107597 0.11113,0.04233 0.23283,0.04233 0.11642,0 0.18874,-0.02822 0.0741,-0.02999 0.1076,-0.07937 0.0353,-0.04939 0.0353,-0.109361 0,-0.07232 -0.0423,-0.116417 -0.0406,-0.0441 -0.1076,-0.06879 -0.067,-0.02646 -0.14816,-0.04586 -0.0811,-0.0194 -0.16228,-0.04057 -0.0811,-0.02293 -0.14993,-0.05997 -0.067,-0.03704 -0.10936,-0.09701 -0.0406,-0.06174 -0.0406,-0.160514 0,-0.09172 0.0476,-0.16757 0.0494,-0.07761 0.14993,-0.123472 0.10055,-0.04763 0.25753,-0.04763 0.10407,0 0.20638,0.02999 0.1023,0.02822 0.17639,0.07937 l -0.0441,0.104069 q -0.0794,-0.05292 -0.16933,-0.07761 -0.0882,-0.02469 -0.1711,-0.02469 -0.11113,0 -0.18345,0.02999 -0.0723,0.02999 -0.10759,0.08114 -0.0335,0.04939 -0.0335,0.112889 0,0.07232 0.0406,0.116417 0.0423,0.0441 0.10936,0.06879 0.0688,0.02469 0.14993,0.0441 0.0811,0.0194 0.16052,0.04233 0.0811,0.02293 0.14816,0.05997 0.0688,0.03528 0.10937,0.09525 0.0423,0.05997 0.0423,0.156986 0,0.08996 -0.0494,0.16757 -0.0494,0.07585 -0.15169,0.123472 -0.10055,0.04586 -0.2593,0.04586 z"
         style="font-family:Montserrat;-inkscape-font-specification:Montserrat"
         id="path7693" /><path
         d="m 120.58027,-24.68532 v -1.234723 h 0.1076 l 0.85196,1.072445 h -0.0564 v -1.072445 h 0.12877 v 1.234723 h -0.1076 l -0.85019,-1.072445 h 0.0564 v 1.072445 z"
         style="font-family:Montserrat;-inkscape-font-specification:Montserrat"
         id="path7695" /><path
         d="m 122.55407,-24.674737 q -0.13935,0 -0.2593,-0.04586 -0.11818,-0.04763 -0.20637,-0.132291 -0.0864,-0.08643 -0.13582,-0.19932 -0.0476,-0.114653 -0.0476,-0.250472 0,-0.13582 0.0476,-0.248709 0.0494,-0.114653 0.13582,-0.199319 0.0882,-0.08643 0.20637,-0.132292 0.11818,-0.04763 0.2593,-0.04763 0.13934,0 0.25752,0.04763 0.11818,0.04586 0.20461,0.130528 0.0882,0.08467 0.13582,0.199319 0.0494,0.114653 0.0494,0.250473 0,0.135819 -0.0494,0.250472 -0.0476,0.114653 -0.13582,0.19932 -0.0864,0.08467 -0.20461,0.132291 -0.11818,0.04586 -0.25752,0.04586 z m 0,-0.116416 q 0.11112,0 0.20461,-0.03704 0.0953,-0.03881 0.16404,-0.107597 0.0705,-0.07056 0.10936,-0.162278 0.0388,-0.09349 0.0388,-0.204611 0,-0.111125 -0.0388,-0.202848 -0.0388,-0.09349 -0.10936,-0.162278 -0.0688,-0.07055 -0.16404,-0.107597 -0.0935,-0.03881 -0.20461,-0.03881 -0.11113,0 -0.20638,0.03881 -0.0952,0.03704 -0.16581,0.107597 -0.0688,0.06879 -0.10936,0.162278 -0.0388,0.09172 -0.0388,0.202848 0,0.109361 0.0388,0.202847 0.0406,0.09349 0.10936,0.164042 0.0706,0.06879 0.16581,0.107597 0.0952,0.03704 0.20638,0.03704 z"
         style="font-family:Montserrat;-inkscape-font-specification:Montserrat"
         id="path7697" /><path
         d="m 124.4961,-24.674737 q -0.13934,0 -0.25929,-0.04586 -0.11818,-0.04763 -0.20637,-0.132291 -0.0864,-0.08643 -0.13582,-0.19932 -0.0476,-0.114653 -0.0476,-0.250472 0,-0.13582 0.0476,-0.248709 0.0494,-0.114653 0.13582,-0.199319 0.0882,-0.08643 0.20637,-0.132292 0.11818,-0.04763 0.25929,-0.04763 0.13935,0 0.25753,0.04763 0.11818,0.04586 0.20461,0.130528 0.0882,0.08467 0.13582,0.199319 0.0494,0.114653 0.0494,0.250473 0,0.135819 -0.0494,0.250472 -0.0476,0.114653 -0.13582,0.19932 -0.0864,0.08467 -0.20461,0.132291 -0.11818,0.04586 -0.25753,0.04586 z m 0,-0.116416 q 0.11113,0 0.20462,-0.03704 0.0952,-0.03881 0.16404,-0.107597 0.0705,-0.07056 0.10936,-0.162278 0.0388,-0.09349 0.0388,-0.204611 0,-0.111125 -0.0388,-0.202848 -0.0388,-0.09349 -0.10936,-0.162278 -0.0688,-0.07055 -0.16404,-0.107597 -0.0935,-0.03881 -0.20462,-0.03881 -0.11112,0 -0.20637,0.03881 -0.0953,0.03704 -0.16581,0.107597 -0.0688,0.06879 -0.10936,0.162278 -0.0388,0.09172 -0.0388,0.202848 0,0.109361 0.0388,0.202847 0.0406,0.09349 0.10936,0.164042 0.0706,0.06879 0.16581,0.107597 0.0952,0.03704 0.20637,0.03704 z"
         style="font-family:Montserrat;-inkscape-font-specification:Montserrat"
         id="path7699" /><path
         d="m 125.65851,-24.68532 v -1.121834 h -0.43392 v -0.112889 h 0.99836 v 0.112889 h -0.43392 v 1.121834 z"
         style="font-family:Montserrat;-inkscape-font-specification:Montserrat"
         id="path7701" /><path
         d="m 127.3342,-25.920043 h 0.12876 v 1.234723 h -0.12876 z m -0.77258,1.234723 h -0.13053 v -1.234723 h 0.13053 z m 0.78493,-0.569736 h -0.79905 v -0.114653 h 0.79905 z"
         style="font-family:Montserrat;-inkscape-font-specification:Montserrat"
         id="path7703" /><path
         d="m 127.98155,-25.367945 h 0.65264 v 0.111125 h -0.65264 z m 0.0141,0.569736 h 0.7426 v 0.112889 h -0.87313 v -1.234723 h 0.84667 v 0.112889 h -0.71614 z"
         style="font-family:Montserrat;-inkscape-font-specification:Montserrat"
         id="path7705" /><path
         d="m 129.04517,-24.68532 v -1.234723 h 0.46214 q 0.15699,0 0.26988,0.05115 0.11288,0.04939 0.17286,0.144639 0.0617,0.09349 0.0617,0.227542 0,0.130528 -0.0617,0.225778 -0.06,0.09349 -0.17286,0.144639 -0.11289,0.04939 -0.26988,0.04939 h -0.38982 l 0.0582,-0.05997 v 0.451556 z m 0.84314,0 -0.3175,-0.448028 h 0.14111 l 0.31927,0.448028 z m -0.71261,-0.440972 -0.0582,-0.06174 h 0.38629 q 0.18521,0 0.28046,-0.08114 0.097,-0.08114 0.097,-0.227542 0,-0.148167 -0.097,-0.229306 -0.0953,-0.08114 -0.28046,-0.08114 h -0.38629 l 0.0582,-0.06174 z"
         style="font-family:Montserrat;-inkscape-font-specification:Montserrat"
         id="path7707" /><path
         d="m 116.79232,-22.468528 v -1.234723 h 0.1076 l 0.56445,0.963084 h -0.0564 l 0.55915,-0.963084 h 0.1076 v 1.234723 h -0.12523 v -1.038931 h 0.03 l -0.51505,0.881945 h -0.0617 l -0.51858,-0.881945 h 0.0335 v 1.038931 z"
         style="font-family:Montserrat;-inkscape-font-specification:Montserrat"
         id="path7709" /><path
         d="m 118.59326,-23.151153 h 0.65263 v 0.111125 h -0.65263 z m 0.0141,0.569736 h 0.74259 v 0.112889 h -0.87312 v -1.234723 h 0.84667 v 0.112889 h -0.71614 z"
         style="font-family:Montserrat;-inkscape-font-specification:Montserrat"
         id="path7711" /><path
         d="m 119.45932,-22.468528 0.56445,-1.234723 h 0.12876 l 0.56445,1.234723 h -0.13759 l -0.51858,-1.158876 h 0.0529 l -0.51859,1.158876 z m 0.22225,-0.329847 0.0388,-0.105834 h 0.7179 l 0.0388,0.105834 z"
         style="font-family:Montserrat;-inkscape-font-specification:Montserrat"
         id="path7713" /><path
         d="m 120.92159,-22.468528 v -1.234723 h 0.10759 l 0.85196,1.072445 h -0.0564 v -1.072445 h 0.12876 v 1.234723 h -0.1076 l -0.85019,-1.072445 h 0.0564 v 1.072445 z"
         style="font-family:Montserrat;-inkscape-font-specification:Montserrat"
         id="path7715" /><path
         d="m 122.35563,-22.468528 v -1.234723 h 0.13053 v 1.234723 z"
         style="font-family:Montserrat;-inkscape-font-specification:Montserrat"
         id="path7717" /><path
         d="m 122.88832,-22.468528 v -1.234723 h 0.1076 l 0.85196,1.072445 h -0.0564 v -1.072445 h 0.12877 v 1.234723 h -0.1076 l -0.8502,-1.072445 h 0.0564 v 1.072445 z"
         style="font-family:Montserrat;-inkscape-font-specification:Montserrat"
         id="path7719" /><path
         d="m 124.86388,-22.457944 q -0.14112,0 -0.26106,-0.04586 -0.11818,-0.04763 -0.20637,-0.132291 -0.0864,-0.08467 -0.13582,-0.19932 -0.0476,-0.114653 -0.0476,-0.250472 0,-0.13582 0.0476,-0.250473 0.0494,-0.114653 0.13758,-0.199319 0.0882,-0.08467 0.20637,-0.130528 0.11995,-0.04763 0.26106,-0.04763 0.14111,0 0.25753,0.0441 0.11818,0.0441 0.20108,0.134056 l -0.0811,0.0829 q -0.0776,-0.07761 -0.17109,-0.111126 -0.0935,-0.03351 -0.20109,-0.03351 -0.11465,0 -0.21167,0.0388 -0.0953,0.03704 -0.16756,0.107597 -0.0706,0.06879 -0.11113,0.162278 -0.0388,0.09172 -0.0388,0.202848 0,0.109361 0.0388,0.202847 0.0406,0.09349 0.11113,0.164042 0.0723,0.06879 0.16756,0.107597 0.097,0.03704 0.20991,0.03704 0.10583,0 0.19932,-0.03175 0.0953,-0.03175 0.17462,-0.107598 l 0.0741,0.09878 q -0.0882,0.07761 -0.20638,0.118181 -0.11818,0.03881 -0.24694,0.03881 z m 0.32808,-0.172862 v -0.455083 h 0.12524 v 0.470958 z"
         style="font-family:Montserrat;-inkscape-font-specification:Montserrat"
         id="path7721" /></g><g
       id="g12751"
       transform="translate(0.82624951,213.56557)"
       style="fill:none;stroke:#808080"><rect
         style="opacity:1;fill:none;fill-opacity:1;stroke:#808080;stroke-width:0.5;stroke-linecap:round;stroke-linejoin:round;stroke-dasharray:none;paint-order:markers fill stroke"
         id="rect12621"
         width="10.713984"
         height="2.6784961"
         x="52.508263"
         y="-24.207537"
         rx="1.3392481" /><path
         id="rect12631"
         style="opacity:1;fill:none;fill-opacity:1;stroke:#808080;stroke-width:0.5;stroke-linecap:round;stroke-linejoin:round;stroke-dasharray:none;paint-order:markers fill stroke"
         d="m 53.303205,-28.562028 a 1.1793015,1.1793015 0 0 0 -1.179264,-1.179263 1.1793015,1.1793015 0 0 0 -0.750222,0.270273 10.753661,10.753661 0 0 0 -6.835612,9.678935 12.196792,12.196792 0 0 1 7.595528,-7.590678 1.1793015,1.1793015 0 0 0 1.16957,-1.179267 z" /><rect
         style="opacity:1;fill:none;fill-opacity:1;stroke:#808080;stroke-width:0.5;stroke-linecap:round;stroke-linejoin:round;stroke-dasharray:none;paint-order:markers fill stroke"
         id="rect12636"
         width="10.713984"
         height="2.6784961"
         x="40.125252"
         y="-18.052402"
         rx="1.3392481" /></g><g
       aria-label="PLATFORMING"
       transform="translate(3.9095603e-7,212.50001)"
       id="text12640"
       style="font-weight:600;font-size:4.23333px;line-height:1.25;font-family:Montserrat;-inkscape-font-specification:'Montserrat Semi-Bold';fill:#808080;stroke-width:0.264583"><path
         d="m 36.885386,-7.8946166 v -2.9633304 h 1.109133 q 0.376766,0 0.647699,0.122766 0.270933,0.118533 0.414866,0.347133 0.148167,0.224367 0.148167,0.5460997 0,0.3132664 -0.148167,0.5418662 -0.143933,0.2243665 -0.414866,0.3471331 -0.270933,0.1227665 -0.647699,0.1227665 h -0.935566 l 0.1397,-0.1481665 v 1.0837324 z m 0.313267,-1.0583324 -0.1397,-0.1523999 h 0.927099 q 0.4445,0 0.673099,-0.1904999 0.232833,-0.1947331 0.232833,-0.5460995 0,-0.3555997 -0.232833,-0.5503327 -0.228599,-0.194733 -0.673099,-0.194733 h -0.927099 l 0.1397,-0.148167 z"
         style="font-weight:normal;-inkscape-font-specification:Montserrat;text-align:center;text-anchor:middle"
         id="path7784" /><path
         d="m 39.882576,-7.8946166 v -2.9633304 h 0.313267 v 2.6923973 h 1.659465 v 0.2709331 z"
         style="font-weight:normal;-inkscape-font-specification:Montserrat;text-align:center;text-anchor:middle"
         id="path7786" /><path
         d="m 41.90187,-7.8946166 1.354665,-2.9633304 h 0.309033 l 1.354666,2.9633304 h -0.3302 l -1.244599,-2.7812974 h 0.127 l -1.244599,2.7812974 z m 0.533399,-0.7916327 0.09313,-0.2539998 h 1.722966 l 0.09313,0.2539998 z"
         style="font-weight:normal;-inkscape-font-specification:Montserrat;text-align:center;text-anchor:middle"
         id="path7788" /><path
         d="m 45.838855,-7.8946166 v -2.6923974 h -1.041399 v -0.270933 h 2.396065 v 0.270933 h -1.0414 v 2.6923974 z"
         style="font-weight:normal;-inkscape-font-specification:Montserrat;text-align:center;text-anchor:middle"
         id="path7790" /><path
         d="m 47.972451,-9.4228487 h 1.566332 v 0.2709332 h -1.566332 z m 0.03387,1.5282321 h -0.313266 v -2.9633304 h 2.031998 v 0.270933 h -1.718732 z"
         style="font-weight:normal;-inkscape-font-specification:Montserrat;text-align:center;text-anchor:middle"
         id="path7792" /><path
         d="m 51.630042,-7.8692166 q -0.334433,0 -0.6223,-0.1100666 -0.283633,-0.1142999 -0.495299,-0.3174997 -0.207433,-0.2074332 -0.325966,-0.4783663 -0.1143,-0.2751664 -0.1143,-0.6011328 0,-0.3259664 0.1143,-0.5968995 0.118533,-0.2751665 0.325966,-0.4783665 0.211666,-0.207433 0.495299,-0.3175 0.283634,-0.114299 0.6223,-0.114299 0.334433,0 0.618066,0.114299 0.283633,0.110067 0.491066,0.313267 0.211667,0.2032 0.325967,0.4783661 0.118533,0.2751665 0.118533,0.6011329 0,0.3259664 -0.118533,0.6011328 -0.1143,0.2751664 -0.325967,0.4783663 -0.207433,0.2031998 -0.491066,0.3174997 -0.283633,0.1100666 -0.618066,0.1100666 z m 0,-0.2793998 q 0.2667,0 0.491066,-0.0889 0.2286,-0.093133 0.3937,-0.2582331 0.169333,-0.1693332 0.262466,-0.3894664 0.09313,-0.2243664 0.09313,-0.4910662 0,-0.2666998 -0.09313,-0.4868329 -0.09313,-0.224366 -0.262466,-0.389466 -0.1651,-0.169333 -0.3937,-0.258233 -0.224366,-0.09313 -0.491066,-0.09313 -0.2667,0 -0.4953,0.09313 -0.228599,0.0889 -0.397933,0.258233 -0.165099,0.1651 -0.262466,0.389466 -0.09313,0.2201331 -0.09313,0.4868329 0,0.2624664 0.09313,0.4868329 0.09737,0.2243665 0.262466,0.3936997 0.169334,0.1650998 0.397933,0.2582331 0.2286,0.0889 0.4953,0.0889 z"
         style="font-weight:normal;-inkscape-font-specification:Montserrat;text-align:center;text-anchor:middle"
         id="path7794" /><path
         d="m 53.886401,-7.8946166 v -2.9633304 h 1.109132 q 0.376767,0 0.6477,0.122766 0.270933,0.118533 0.414866,0.347133 0.148167,0.224367 0.148167,0.5460997 0,0.3132664 -0.148167,0.5418662 -0.143933,0.2243665 -0.414866,0.3471331 -0.270933,0.1185332 -0.6477,0.1185332 h -0.935566 l 0.1397,-0.1439332 v 1.0837324 z m 2.023531,0 -0.761999,-1.0752658 H 55.4866 l 0.766232,1.0752658 z m -1.710265,-1.0583324 -0.1397,-0.1481666 h 0.9271 q 0.444499,0 0.673099,-0.1947332 0.232833,-0.1947331 0.232833,-0.5460995 0,-0.3555997 -0.232833,-0.5503327 -0.2286,-0.194733 -0.673099,-0.194733 h -0.9271 l 0.1397,-0.148167 z"
         style="font-weight:normal;-inkscape-font-specification:Montserrat;text-align:center;text-anchor:middle"
         id="path7796" /><path
         d="m 56.947097,-7.8946166 v -2.9633304 h 0.258233 l 1.354665,2.3113976 h -0.135466 l 1.341965,-2.3113976 h 0.258233 v 2.9633304 h -0.300566 v -2.4934314 h 0.07197 l -1.236132,2.116665 h -0.148166 l -1.244599,-2.116665 h 0.08043 v 2.4934314 z"
         style="font-weight:normal;-inkscape-font-specification:Montserrat;text-align:center;text-anchor:middle"
         id="path7798" /><path
         d="m 60.989926,-7.8946166 v -2.9633304 h 0.313266 v 2.9633304 z"
         style="font-weight:normal;-inkscape-font-specification:Montserrat;text-align:center;text-anchor:middle"
         id="path7800" /><path
         d="m 62.268384,-7.8946166 v -2.9633304 h 0.258233 l 2.044698,2.5738641 h -0.135466 v -2.5738641 h 0.309033 v 2.9633304 h -0.258234 l -2.040464,-2.5738644 h 0.135466 v 2.5738644 z"
         style="font-weight:normal;-inkscape-font-specification:Montserrat;text-align:center;text-anchor:middle"
         id="path7802" /><path
         d="m 67.009712,-7.8692166 q -0.338666,0 -0.626533,-0.1100666 -0.283633,-0.1142999 -0.495299,-0.3174997 -0.207433,-0.2031999 -0.325967,-0.4783663 -0.1143,-0.2751664 -0.1143,-0.6011328 0,-0.3259664 0.1143,-0.6011329 0.118534,-0.2751661 0.3302,-0.4783661 0.211667,-0.2032 0.4953,-0.313267 0.287866,-0.114299 0.626532,-0.114299 0.338667,0 0.618067,0.105833 0.283633,0.105833 0.482599,0.321733 l -0.194733,0.198966 q -0.186267,-0.186266 -0.410633,-0.266699 -0.224366,-0.08043 -0.4826,-0.08043 -0.275166,0 -0.507999,0.09313 -0.2286,0.0889 -0.402167,0.258233 -0.169333,0.1651 -0.266699,0.3894661 -0.09313,0.2201331 -0.09313,0.4868329 0,0.2624664 0.09313,0.4868329 0.09737,0.2243665 0.266699,0.3936997 0.173567,0.1650998 0.402167,0.2582331 0.232833,0.0889 0.503766,0.0889 0.254,0 0.478366,-0.0762 0.2286,-0.0762 0.4191,-0.2582331 l 0.1778,0.2370664 q -0.211667,0.1862665 -0.4953,0.2836331 -0.283633,0.093133 -0.592666,0.093133 z m 0.787399,-0.4148663 V -9.376282 h 0.300567 v 1.130299 z"
         style="font-weight:normal;-inkscape-font-specification:Montserrat;text-align:center;text-anchor:middle"
         id="path7804" /></g></g></svg>
