<?xml version="1.0" encoding="UTF-8"?>
<svg width="1.4053in" height="1in" version="1.1" viewBox="0 0 134.91 96" xmlns="http://www.w3.org/2000/svg" xmlns:xlink="http://www.w3.org/1999/xlink">
<g transform="translate(-69.042 -79.25)">
<path id="a" d="m84.703 123.31c2.8858-13.584 3.2186-27.339-0.4956-41.363l21.838 21.838z" fill="#fff" stroke="#000" stroke-linejoin="round" stroke-width="5.3862"/>
<path d="m144.34 140.65s16.772-12.234 22.797-20.485c3.1664-4.3359 2.7259-10.98 6.6079-14.689 3.4688-3.3141 9.1283-3.0795 13.381-5.2998 4.8603-2.5375 13.711-9.0859 13.711-9.0859s-1.0098 13.714-2.1476 20.485c-0.80566 4.7948-0.98409 9.9341-3.304 14.207-2.9174 5.3734-7.629 9.83-12.72 13.216-12.832 8.5338-43.117 16.685-43.117 16.685z" fill="#fff" stroke="#000" stroke-width="1.0772"/>
<path d="m90.248 93.525c0.7083 6.5113 0.71104 12.968 0.04687 19.35l10.08-9.2227z" fill="#ff2f92" xlink:href="#a"/>
<path d="m200.84 91.091s-8.8563 6.5475-13.717 9.085c-3.4861 1.8201-7.9111 1.991-11.306 3.8188l-0.2283 4.6204 7.0476 0.23381s0.67142 3.2694 0 4.6761c-0.65076 1.3634-3.5238 2.8502-3.5238 2.8502s5.5398 1.5174 7.9939 0.46761c1.3338-0.57059 2.8168-3.3178 2.8168-3.3178l1.6478 2.8502 3.29 1.4084s-3.5351 1.8087-3.997 3.5238c-0.51535 1.9134 1.8816 5.6392 1.8816 5.6392s0.53674-4.0908 2.1154-4.9322c0.5749-0.30642 1.9206 0.36183 1.9206 0.36183 1.0524-3.4577 1.3084-7.2226 1.9094-10.8 1.1377-6.7707 2.1488-20.486 2.1488-20.486z" fill="#009051"/>
<path d="m203.95 85.435-4.7151 3.4904s-8.9904 6.5837-13.355 8.8624c-1.6574 0.86532-3.9443 1.3637-6.4352 2.0263-2.4909 0.66264-5.2734 1.5288-7.5597 3.7131-2.5586 2.4445-3.5129 5.5777-4.3032 8.3113-0.79025 2.7336-1.4602 5.1506-2.622 6.7414-2.6845 3.676-8.3206 8.8145-13.199 12.848-4.8783 4.0337-9.0127 7.0476-9.0127 7.0476l-0.707 0.51772-0.2672 0.84058-6.2905 19.734 4.7652-1.2859s7.6442-2.0543 16.906-5.1883c9.2623-3.134 20.099-7.2628 26.999-11.852 5.3607-3.565 10.395-8.2799 13.594-14.173 2.7243-5.0178 2.8318-10.498 3.5962-15.047 1.193-7.0999 2.1766-20.731 2.1766-20.731zm-6.3851 11.045c-0.35933 4.3474-0.74739 9.9891-1.5309 14.652-0.84702 5.0409-1.1018 9.8379-3.0172 13.366-2.6352 4.8536-7.0243 9.0515-11.846 12.258-5.9319 3.9449-16.653 8.1588-25.741 11.234-6.4433 2.1802-9.0187 2.8379-11.757 3.6129l2.9782-9.3355c0.59138-0.43406 3.9214-2.8682 8.5451-6.6913 5.0141-4.146 10.771-9.248 14.112-13.822 2.0047-2.7451 2.6999-5.8173 3.4514-8.417s1.5212-4.6476 2.8447-5.912c1.1825-1.1298 2.958-1.8012 5.2272-2.4049 2.2693-0.60368 4.9422-1.1 7.5375-2.455 3.5015-1.8281 6.1985-3.9381 9.1964-6.0845z" color="#000000" stroke-width="2.8502"/>
<path d="m144.36 112.42c-6.2017 14.572-3.4883 38.658-2.1285 52.698 3.7146-2.3136 11.478-7.3763 15.366-18.713 4.5217-13.186-11.379-34.477-13.237-33.984z" fill="#009051" stroke="#000" stroke-width="5.3862"/>
<path d="m147.32 83.988c-2.1856 8.3848-6.8413 14.174-12.692 18.242-5.6016-5.3938-12.348-9.0535-19.283-9.3244-18.637-0.72783-32.13 22.649-39.229 39.897-3.9914 9.6976-7.3854 23.899-0.12247 31.464 8.9796 9.3526 33.102 9.2235 44.64 7.1088 17.088-3.1317 28.57-14.018 28.246-38.572 0-3.2076-0.55023-6.5689-1.5587-9.92z" fill="#fff" stroke="#000" stroke-linecap="round" stroke-linejoin="round" stroke-width="5.3862" style="paint-order:markers fill stroke"/>
<circle cx="102.84" cy="113.01" r="1.9428" fill="#ff2f92" style="paint-order:markers fill stroke"/>
<circle cx="104.07" cy="114.82" r="1.9428" fill="#ff2f92" style="paint-order:markers fill stroke"/>
<path d="m83.175 113.81c15.681 2.2188 37.603-6.4223 50.813-11.37-3.1962-2.9892-9.4554-9.3916-21.412-10.213-13.907-0.95486-30.357 19.914-29.4 21.582z" fill="#009051" stroke="#000" stroke-linecap="round" stroke-linejoin="round" stroke-width="5.3862"/>
<g fill="#ff2f92">
<path d="m142.65 99.991c-3.1001 5.7122-8.564 7.3518-16.448 10.408l12.537 11.285c4.2647 4.2647 4.1333-7.7515 4.1472-8.8046z" stroke-width=".90906"/>
<circle cx="89.619" cy="124.39" r="1.9428" style="paint-order:markers fill stroke"/>
<circle cx="123.15" cy="126.33" r="1.9428" style="paint-order:markers fill stroke"/>
<circle cx="104.07" cy="128.27" r="1.9428" style="paint-order:markers fill stroke"/>
<circle cx="86.662" cy="138.84" r="1.9428" style="paint-order:markers fill stroke"/>
<circle cx="98.106" cy="144.44" r="1.9428" style="paint-order:markers fill stroke"/>
<circle cx="116.41" cy="144.44" r="1.9428" style="paint-order:markers fill stroke"/>
<circle cx="101.03" cy="155.85" r="1.9428" style="paint-order:markers fill stroke"/>
<circle cx="121.13" cy="161.62" r="1.9428" style="paint-order:markers fill stroke"/>
<circle cx="133.54" cy="148.32" r="1.9428" style="paint-order:markers fill stroke"/>
<circle cx="163.98" cy="131.12" r="1.9428" style="paint-order:markers fill stroke"/>
<circle cx="175.59" cy="133.07" r="1.9428" style="paint-order:markers fill stroke"/>
<circle cx="172.38" cy="121.68" r="1.9428" style="paint-order:markers fill stroke"/>
</g>
</g>
</svg>
